<svg width="73" height="73" viewBox="0 0 73 73" fill="none" xmlns="http://www.w3.org/2000/svg">
<mask id="path-1-inside-1_38_1904" fill="white">
<path d="M0 0H73V73H0V0Z"/>
</mask>
<path d="M73 73V73.5H73.5V73H73ZM0 73.5H3.65V72.5H0V73.5ZM10.95 73.5H18.25V72.5H10.95V73.5ZM25.55 73.5H32.85V72.5H25.55V73.5ZM40.15 73.5H47.45V72.5H40.15V73.5ZM54.75 73.5H62.05V72.5H54.75V73.5ZM69.35 73.5H73V72.5H69.35V73.5ZM73.5 73V69.35H72.5V73H73.5ZM73.5 62.05V54.75H72.5V62.05H73.5ZM73.5 47.45V40.15H72.5V47.45H73.5ZM73.5 32.85V25.55H72.5V32.85H73.5ZM73.5 18.25V10.95H72.5V18.25H73.5ZM73.5 3.65V0H72.5V3.65H73.5ZM73 73V74H74V73H73ZM0 74H3.65V72H0V74ZM10.95 74H18.25V72H10.95V74ZM25.55 74H32.85V72H25.55V74ZM40.15 74H47.45V72H40.15V74ZM54.75 74H62.05V72H54.75V74ZM69.35 74H73V72H69.35V74ZM74 73V69.35H72V73H74ZM74 62.05V54.75H72V62.05H74ZM74 47.45V40.15H72V47.45H74ZM74 32.85V25.55H72V32.85H74ZM74 18.25V10.95H72V18.25H74ZM74 3.65V0H72V3.65H74Z" fill="#000801" fill-opacity="0.2" mask="url(#path-1-inside-1_38_1904)"/>
</svg>
