<svg width="18" height="21" viewBox="0 0 18 21" fill="none" xmlns="http://www.w3.org/2000/svg">
<path d="M16.1175 1.9217C13.6092 -0.640567 9.52456 -0.640567 7.01895 1.9217L0.0692554 9.01554C0.0239892 9.06178 2.46165e-05 9.12434 2.46165e-05 9.18962C2.46165e-05 9.25491 0.0239892 9.31747 0.0692554 9.36371L1.0518 10.3674C1.09671 10.4131 1.1575 10.4387 1.22088 10.4387C1.28426 10.4387 1.34505 10.4131 1.38996 10.3674L8.33965 3.27356C9.20237 2.39227 10.35 1.9081 11.5695 1.9081C12.7891 1.9081 13.9367 2.39227 14.7967 3.27356C15.6595 4.15485 16.1334 5.32718 16.1334 6.57023C16.1334 7.81601 15.6595 8.98562 14.7967 9.86691L7.71392 17.0995L6.56629 18.2718C5.49321 19.368 3.74913 19.368 2.67606 18.2718C2.15683 17.7414 1.87191 17.0369 1.87191 16.2862C1.87191 15.5355 2.15683 14.831 2.67606 14.3006L9.70297 7.12512C9.88137 6.9456 10.1157 6.84496 10.366 6.84496H10.3686C10.6189 6.84496 10.8506 6.9456 11.0263 7.12512C11.2047 7.30736 11.3006 7.54673 11.3006 7.80241C11.3006 8.05537 11.2021 8.29473 11.0263 8.47426L5.28286 14.3359C5.23759 14.3822 5.21362 14.4447 5.21362 14.51C5.21362 14.5753 5.23759 14.6378 5.28286 14.6841L6.2654 15.6878C6.31031 15.7335 6.3711 15.7591 6.43448 15.7591C6.49786 15.7591 6.55865 15.7335 6.60356 15.6878L12.3444 9.82339C12.8743 9.28211 13.1645 8.56402 13.1645 7.79969C13.1645 7.03536 12.8716 6.31455 12.3444 5.77599C11.25 4.65805 9.47131 4.66077 8.37693 5.77599L7.69528 6.47503L1.35268 12.9514C0.922206 13.3886 0.580972 13.9087 0.348775 14.4816C0.116577 15.0545 -0.00196421 15.6688 2.46165e-05 16.2889C2.46165e-05 17.5483 0.481976 18.7315 1.35268 19.6209C2.25535 20.5403 3.43759 21 4.61984 21C5.80209 21 6.98433 20.5403 7.88433 19.6209L16.1175 11.216C17.329 9.97571 18 8.32465 18 6.57023C18.0027 4.81309 17.3316 3.16204 16.1175 1.9217Z" fill="#000801"/>
</svg>
