<svg width="145" height="138" viewBox="0 0 145 138" fill="none" xmlns="http://www.w3.org/2000/svg">
<path d="M0 79.8947V43.5789C0 39.5842 1.421 36.1657 4.263 33.3234C7.10017 30.4762 10.5125 29.0526 14.5 29.0526H43.5V14.5263C43.5 10.5316 44.921 7.11063 47.763 4.26347C50.6002 1.42116 54.0125 0 58 0H87C90.9875 0 94.4023 1.42116 97.2443 4.26347C100.081 7.11063 101.5 10.5316 101.5 14.5263V29.0526H130.5C134.488 29.0526 137.902 30.4762 140.744 33.3234C143.581 36.1657 145 39.5842 145 43.5789V79.8947H94.25V72.6316C94.25 70.5737 93.5564 68.8475 92.1693 67.4529C90.7773 66.0633 89.0542 65.3684 87 65.3684H58C55.9458 65.3684 54.2252 66.0633 52.838 67.4529C51.446 68.8475 50.75 70.5737 50.75 72.6316V79.8947H0ZM58 29.0526H87V14.5263H58V29.0526ZM65.25 94.4211V79.8947H79.75V94.4211H65.25ZM14.5 138C10.5125 138 7.10017 136.579 4.263 133.737C1.421 130.889 0 127.468 0 123.474V94.4211H50.75V101.684C50.75 103.742 51.446 105.466 52.838 106.856C54.2252 108.25 55.9458 108.947 58 108.947H87C89.0542 108.947 90.7773 108.25 92.1693 106.856C93.5564 105.466 94.25 103.742 94.25 101.684V94.4211H145V123.474C145 127.468 143.581 130.889 140.744 133.737C137.902 136.579 134.488 138 130.5 138H14.5Z" fill="#3BDED7"/>
</svg>
