<svg width="207" height="178" viewBox="0 0 207 178" fill="none" xmlns="http://www.w3.org/2000/svg">
<path d="M202.841 0H3.55862C1.42345 0 0 1.42345 0 3.55862V131.669C0 133.804 1.42345 135.228 3.55862 135.228H88.9655V160.138H71.1724C69.0372 160.138 67.6138 161.561 67.6138 163.697V174.372C67.6138 176.508 69.0372 177.931 71.1724 177.931H135.228C137.363 177.931 138.786 176.508 138.786 174.372V163.697C138.786 161.561 137.363 160.138 135.228 160.138H117.434V135.228H202.841C204.977 135.228 206.4 133.804 206.4 131.669V3.55862C206.4 1.42345 204.977 0 202.841 0ZM7.11724 7.11724H199.283V106.759H163.697V14.2345C163.697 12.0993 162.273 10.6759 160.138 10.6759H21.3517C19.2166 10.6759 17.7931 12.0993 17.7931 14.2345V106.759H7.11724V7.11724ZM133.092 106.759L100.353 75.4428L120.993 54.8028L156.579 88.6097V106.759H133.092ZM156.579 79.0014L123.484 47.3297C122.061 45.9062 119.926 45.9062 118.502 47.3297L95.371 70.4607L55.8704 33.0952C54.4469 31.6717 52.3117 31.6717 50.8883 33.0952L24.9103 59.0731V17.7931H156.579V79.0014ZM24.9103 69.0372L53.3793 40.5683L122.772 106.759H24.9103V69.0372ZM131.669 170.814H74.731V167.255H131.669V170.814ZM110.317 160.138H96.0828V135.228H110.317V160.138ZM113.876 128.11H7.11724V113.876H199.283V128.11H113.876Z" fill="#3BDED7"/>
<path d="M113.876 117.434H92.5241C90.3889 117.434 88.9655 118.858 88.9655 120.993C88.9655 123.128 90.3889 124.552 92.5241 124.552H113.876C116.011 124.552 117.434 123.128 117.434 120.993C117.434 118.858 116.011 117.434 113.876 117.434Z" fill="#3BDED7"/>
<path d="M170.814 21.3517H174.372C176.508 21.3517 177.931 19.9283 177.931 17.7931C177.931 15.6579 176.508 14.2345 174.372 14.2345H170.814C168.679 14.2345 167.255 15.6579 167.255 17.7931C167.255 19.9283 168.679 21.3517 170.814 21.3517Z" fill="#3BDED7"/>
<path d="M188.607 21.3517H192.165C194.301 21.3517 195.724 19.9283 195.724 17.7931C195.724 15.6579 194.301 14.2345 192.165 14.2345H188.607C186.472 14.2345 185.048 15.6579 185.048 17.7931C185.048 19.9283 186.472 21.3517 188.607 21.3517Z" fill="#3BDED7"/>
<path d="M170.814 32.0276H174.372C176.508 32.0276 177.931 30.6042 177.931 28.469C177.931 26.3338 176.508 24.9104 174.372 24.9104H170.814C168.679 24.9104 167.255 26.3338 167.255 28.469C167.255 30.6042 168.679 32.0276 170.814 32.0276Z" fill="#3BDED7"/>
<path d="M188.607 32.0276H192.165C194.301 32.0276 195.724 30.6042 195.724 28.469C195.724 26.3338 194.301 24.9104 192.165 24.9104H188.607C186.472 24.9104 185.048 26.3338 185.048 28.469C185.048 30.6042 186.472 32.0276 188.607 32.0276Z" fill="#3BDED7"/>
<path d="M170.814 42.7034H174.372C176.508 42.7034 177.931 41.28 177.931 39.1448C177.931 37.0096 176.508 35.5862 174.372 35.5862H170.814C168.679 35.5862 167.255 37.0096 167.255 39.1448C167.255 41.28 168.679 42.7034 170.814 42.7034Z" fill="#3BDED7"/>
<path d="M188.607 42.7034H192.165C194.301 42.7034 195.724 41.28 195.724 39.1448C195.724 37.0096 194.301 35.5862 192.165 35.5862H188.607C186.472 35.5862 185.048 37.0096 185.048 39.1448C185.048 41.28 186.472 42.7034 188.607 42.7034Z" fill="#3BDED7"/>
<path d="M170.814 78.2896H192.165C194.301 78.2896 195.724 76.8661 195.724 74.731V60.4965C195.724 58.3613 194.301 56.9379 192.165 56.9379H170.814C168.679 56.9379 167.255 58.3613 167.255 60.4965V74.731C167.255 76.8661 168.679 78.2896 170.814 78.2896ZM174.372 64.0551H188.607V71.1723H174.372V64.0551Z" fill="#3BDED7"/>
<path d="M170.814 88.9655H192.165C194.301 88.9655 195.724 87.5421 195.724 85.4069C195.724 83.2717 194.301 81.8483 192.165 81.8483H170.814C168.679 81.8483 167.255 83.2717 167.255 85.4069C167.255 87.5421 168.679 88.9655 170.814 88.9655Z" fill="#3BDED7"/>
<path d="M170.814 103.2H192.165C194.301 103.2 195.724 101.777 195.724 99.6414C195.724 97.5062 194.301 96.0828 192.165 96.0828H170.814C168.679 96.0828 167.255 97.5062 167.255 99.6414C167.255 101.777 168.679 103.2 170.814 103.2Z" fill="#3BDED7"/>
<path d="M99.6413 46.2621C105.691 46.2621 110.317 41.6359 110.317 35.5863C110.317 29.5366 105.691 24.9104 99.6413 24.9104C93.5917 24.9104 88.9655 29.5366 88.9655 35.5863C88.9655 41.6359 93.5917 46.2621 99.6413 46.2621ZM99.6413 32.0276C101.776 32.0276 103.2 33.4511 103.2 35.5863C103.2 37.7214 101.776 39.1449 99.6413 39.1449C97.5061 39.1449 96.0827 37.7214 96.0827 35.5863C96.0827 33.4511 97.5061 32.0276 99.6413 32.0276Z" fill="#3BDED7"/>
</svg>
