<svg width="70" height="70" viewBox="0 0 70 70" fill="none" xmlns="http://www.w3.org/2000/svg">
<circle cx="35" cy="35" r="35" fill="#3BDED7"/>
<path fill-rule="evenodd" clip-rule="evenodd" d="M41.188 42.4523C41.1137 42.633 41.0415 42.8145 40.9713 42.9969C37.0958 44.2988 32.9042 44.2988 29.0287 42.9969C28.9586 42.8145 28.8864 42.633 28.812 42.4523C28.6062 41.9513 28.5022 41.6987 28.3223 41.4678C28.1447 41.2347 27.8327 40.9995 27.2087 40.5312C25.0238 38.8866 23.4092 36.5925 22.5937 33.9739C21.7783 31.3552 21.8034 28.545 22.6654 25.9415C23.5274 23.3381 25.1827 21.0734 27.3966 19.4685C29.6104 17.8636 32.2706 17 35 17C37.7294 17 40.3896 17.8636 42.6034 19.4685C44.8173 21.0734 46.4726 23.3381 47.3346 25.9415C48.1966 28.545 48.2217 31.3552 47.4063 33.9739C46.5908 36.5925 44.9762 38.8866 42.7913 40.5312C42.1673 40.9995 41.8553 41.2347 41.6777 41.4678C41.4978 41.6987 41.396 41.9492 41.188 42.4523ZM30.3417 47.8543C30.5302 49.0022 30.6363 50.1654 30.6623 51.3351C30.6645 51.4897 30.7087 51.6408 30.79 51.7721C30.8713 51.9034 30.9867 52.0098 31.1238 52.08C32.3273 52.685 33.6544 53 35 53C36.3456 53 37.6727 52.685 38.8762 52.08C39.0133 52.0098 39.1287 51.9034 39.21 51.7721C39.2913 51.6408 39.3355 51.4897 39.3377 51.3351C39.3637 50.1654 39.4698 49.0044 39.6583 47.8543C36.5848 48.4881 33.4152 48.4881 30.3417 47.8543Z" fill="#000801"/>
</svg>
