<svg width="36" height="35" viewBox="0 0 36 35" fill="none" xmlns="http://www.w3.org/2000/svg">
<path fill-rule="evenodd" clip-rule="evenodd" d="M17.9633 30.3496C24.8278 30.2145 30.387 24.4839 30.387 17.4984C30.387 11.1024 25.7143 5.65823 19.4927 4.77228V2.40755C26.4709 3.2441 31.9846 8.9649 32.634 16.0789L32.647 16.2238L35.4331 17.4984L32.647 18.7729L32.634 18.9179C31.9716 26.1701 26.3021 31.9338 19.155 32.6254L19.0122 32.6386L17.9633 35V30.3496ZM15.9403 32.5892C8.96218 31.7526 3.44849 26.0318 2.79906 18.9179L2.78607 18.7729L0 17.4984L2.78607 16.2238L2.79906 16.0789C3.46148 8.82657 9.13103 3.06295 16.278 2.37132L16.4209 2.35814L17.4698 0V4.65042C10.6052 4.78216 5.0461 10.5128 5.0461 17.4984C5.0461 23.8943 9.71877 29.3418 15.9403 30.2244V32.5892Z" fill="#8BFBA3"/>
<path fill-rule="evenodd" clip-rule="evenodd" d="M16.4761 20.1924L16.4274 20.1693C15.424 19.6687 14.8005 18.6444 14.8005 17.5016C14.8005 16.3554 15.424 15.3345 16.4274 14.8338L16.4761 14.8108L17.7035 8.7804L18.9309 14.8108L18.9796 14.8338C19.996 15.3312 20.6292 16.3521 20.6292 17.5016C20.6292 18.651 19.996 19.672 18.9796 20.1693L18.9309 20.1924L17.7035 26.2228L16.4761 20.1924ZM17.7165 15.8845C16.8398 15.8845 16.1254 16.609 16.1254 17.4983C16.1254 18.3875 16.8398 19.1121 17.7165 19.1121C18.5932 19.1121 19.3076 18.3875 19.3076 17.4983C19.3076 16.609 18.5932 15.8845 17.7165 15.8845Z" fill="#D7E4DA"/>
</svg>
