<svg width="135" height="35" viewBox="0 0 135 35" fill="none" xmlns="http://www.w3.org/2000/svg">
<path fill-rule="evenodd" clip-rule="evenodd" d="M17.9633 30.3496C24.8278 30.2145 30.387 24.4839 30.387 17.4984C30.387 11.1024 25.7143 5.65823 19.4927 4.77228V2.40755C26.4709 3.2441 31.9846 8.9649 32.634 16.0789L32.647 16.2238L35.4331 17.4984L32.647 18.7729L32.634 18.9179C31.9716 26.1701 26.3021 31.9338 19.155 32.6254L19.0122 32.6386L17.9633 35V30.3496ZM15.9403 32.5892C8.96218 31.7526 3.44849 26.0318 2.79906 18.9179L2.78607 18.7729L0 17.4984L2.78607 16.2238L2.79906 16.0789C3.46148 8.82657 9.13103 3.06295 16.278 2.37132L16.4209 2.35814L17.4698 0V4.65042C10.6052 4.78216 5.0461 10.5128 5.0461 17.4984C5.0461 23.8943 9.71877 29.3418 15.9403 30.2244V32.5892Z" fill="#8BFBA3"/>
<path fill-rule="evenodd" clip-rule="evenodd" d="M16.4761 20.412L16.4274 20.3889C15.4241 19.8883 14.8006 18.864 14.8006 17.7212C14.8006 16.575 15.4241 15.5541 16.4274 15.0534L16.4761 15.0304L17.7036 9L18.931 15.0304L18.9797 15.0534C19.9961 15.5508 20.6293 16.5717 20.6293 17.7212C20.6293 18.8706 19.9961 19.8916 18.9797 20.3889L18.931 20.412L17.7036 26.4424L16.4761 20.412ZM17.7166 16.1041C16.8398 16.1041 16.1254 16.8286 16.1254 17.7179C16.1254 18.6071 16.8398 19.3317 17.7166 19.3317C18.5933 19.3317 19.3077 18.6071 19.3077 17.7179C19.3077 16.8286 18.5933 16.1041 17.7166 16.1041Z" fill="#D7E4DA"/>
<path d="M46.5662 6.62579H44.2899V13.6456H46.5662V15.9179H44.2899V22.9243H46.5662V25.1966H42V4.35347H46.5662V6.62579Z" fill="#D7E4DA"/>
<path d="M48.1609 9.52029C48.7697 8.91614 49.4967 8.61407 50.3418 8.61407C51.196 8.61407 51.9229 8.91614 52.5226 9.52029C53.1315 10.1154 53.4359 10.8368 53.4359 11.6844V14.8765H51.1051V11.4139C51.1051 11.2065 51.0324 11.0261 50.887 10.8729C50.7325 10.7286 50.5508 10.6564 50.3418 10.6564C50.1328 10.6564 49.9556 10.7286 49.8102 10.8729C49.6648 11.0261 49.5921 11.2065 49.5921 11.4139V14.9847C49.5921 15.183 49.6512 15.3544 49.7693 15.4986C49.9056 15.6519 50.0737 15.7286 50.2736 15.7286H50.7098C51.8911 15.7286 52.6998 16.2741 53.136 17.3652C53.2723 17.7078 53.3632 18.0866 53.4086 18.5014C53.4177 18.6276 53.4268 18.7493 53.4359 18.8665C53.4359 18.9026 53.4359 18.9387 53.4359 18.9748V22.7349C53.3632 23.5194 53.0315 24.1776 52.4409 24.7096C51.8502 25.2417 51.1505 25.5077 50.3418 25.5077C49.5421 25.5077 48.847 25.2417 48.2563 24.7096C47.6657 24.1776 47.334 23.5239 47.2613 22.7484V19.2588H49.5921V22.7214C49.5921 22.9288 49.6648 23.1046 49.8102 23.2489C49.9556 23.3931 50.1328 23.4653 50.3418 23.4653C50.5508 23.4653 50.7325 23.3931 50.887 23.2489C51.0324 23.1046 51.1051 22.9288 51.1051 22.7214V19.0153C51.1051 18.5194 50.8779 18.2714 50.4236 18.2714H50.2736C49.4013 18.2714 48.6607 17.9333 48.0519 17.257C47.5248 16.6709 47.2613 15.9901 47.2613 15.2146V11.6844C47.2613 10.8368 47.5612 10.1154 48.1609 9.52029Z" fill="#D7E4DA"/>
<path d="M57.7976 8.89811V11.1569H57.0343V25.1966H54.7444V11.1569H53.9947V8.89811H54.7444V4.35347H57.0343V8.89811H57.7976Z" fill="#D7E4DA"/>
<path d="M61.9412 25.183C61.5505 25.3995 61.1234 25.5077 60.66 25.5077C59.2152 25.5077 58.4927 24.4887 58.4927 22.4509V8.89811H60.8235V22.7214C60.8235 22.9288 60.8962 23.1046 61.0416 23.2489C61.187 23.3931 61.3642 23.4653 61.5732 23.4653C61.7822 23.4653 61.9639 23.3931 62.1184 23.2489C62.2638 23.1046 62.3365 22.9288 62.3365 22.7214V8.89811H64.6673V25.2101H62.3774V24.8449C62.3774 24.8449 62.3683 24.8539 62.3501 24.872C62.332 24.899 62.3047 24.9261 62.2684 24.9531C62.1775 25.0343 62.0684 25.1109 61.9412 25.183ZM63.5905 2L62.391 6.97746H60.5646L61.764 2H63.5905Z" fill="#D7E4DA"/>
<path d="M67.6932 11.3733V22.7214C67.6932 22.9288 67.7659 23.1046 67.9113 23.2489C68.0658 23.3931 68.2475 23.4653 68.4565 23.4653C68.6655 23.4653 68.8427 23.3931 68.9881 23.2489C69.1426 23.1046 69.2198 22.9288 69.2198 22.7214V11.3733C69.2198 11.1659 69.1426 10.9901 68.9881 10.8458C68.8427 10.7015 68.6655 10.6294 68.4565 10.6294C68.2475 10.6294 68.0658 10.7015 67.9113 10.8458C67.7659 10.9901 67.6932 11.1659 67.6932 11.3733ZM67.6932 8.58702C68.4656 8.58702 68.9836 8.80343 69.2471 9.23625V4.35347H71.537V22.4509C71.537 23.2895 71.2371 24.0108 70.6374 24.615C70.0286 25.2101 69.3016 25.5077 68.4565 25.5077C67.6024 25.5077 66.8754 25.2101 66.2757 24.615C65.6669 24.0108 65.3625 23.2895 65.3625 22.4509V11.6438C65.3625 9.60595 66.1394 8.58702 67.6932 8.58702Z" fill="#D7E4DA"/>
<path d="M74.5221 25.1966H72.2322V8.88458H74.5221V25.1966ZM74.5221 7.24797H72.2322V4.85392H74.5221V7.24797Z" fill="#D7E4DA"/>
<path d="M77.5207 11.3733V22.7214C77.5207 22.9288 77.598 23.1046 77.7525 23.2489C77.8978 23.3931 78.075 23.4653 78.284 23.4653C78.493 23.4653 78.6748 23.3931 78.8293 23.2489C78.9746 23.1046 79.0473 22.9288 79.0473 22.7214V11.3733C79.0473 11.1659 78.9746 10.9901 78.8293 10.8458C78.6748 10.7015 78.493 10.6294 78.284 10.6294C78.075 10.6294 77.8978 10.7015 77.7525 10.8458C77.598 10.9901 77.5207 11.1659 77.5207 11.3733ZM76.1032 9.47971C76.712 8.88458 77.439 8.58702 78.284 8.58702C79.1382 8.58702 79.8652 8.88458 80.4649 9.47971C81.0737 10.0839 81.3781 10.8052 81.3781 11.6438V22.4509C81.3781 23.2895 81.0737 24.0108 80.4649 24.615C79.8652 25.2101 79.1382 25.5077 78.284 25.5077C77.439 25.5077 76.712 25.2101 76.1032 24.615C75.5034 24.0108 75.2036 23.2895 75.2036 22.4509V11.6438C75.2036 10.8052 75.5034 10.0839 76.1032 9.47971Z" fill="#D7E4DA"/>
<path d="M88.2069 21.9369V7.64022C88.2069 7.23445 88.0706 6.95491 87.798 6.80162C87.6617 6.72949 87.5254 6.69793 87.3891 6.70694H86.8984V22.8702H87.3891C87.5254 22.8792 87.6617 22.8476 87.798 22.7755C88.0706 22.6222 88.2069 22.3427 88.2069 21.9369ZM90.5377 7.28855L90.5241 22.2885C90.5241 22.541 90.5196 22.7574 90.5105 22.9378C90.4832 23.4157 90.4196 23.7989 90.3197 24.0875C90.0561 24.8269 89.4609 25.1966 88.5341 25.1966H84.6085V4.35347H88.6022C89.52 4.35347 90.1016 4.72768 90.3469 5.4761C90.4469 5.76465 90.5059 6.14788 90.5241 6.62579C90.5332 6.80613 90.5377 7.02705 90.5377 7.28855Z" fill="#D7E4DA"/>
<path d="M93.5501 15.3634H95.0767V11.3733C95.0767 11.1659 95.004 10.9901 94.8586 10.8458C94.7041 10.7015 94.5224 10.6294 94.3134 10.6294C94.1044 10.6294 93.9272 10.7015 93.7818 10.8458C93.6273 10.9901 93.5501 11.1659 93.5501 11.3733V15.3634ZM92.1325 9.47971C92.7413 8.88458 93.4683 8.58702 94.3134 8.58702C95.1675 8.58702 95.8945 8.88458 96.4942 9.47971C97.103 10.0839 97.4074 10.8052 97.4074 11.6438V17.6357H93.5501V22.7214C93.5501 22.9288 93.6273 23.1046 93.7818 23.2489C93.9272 23.3931 94.1044 23.4653 94.3134 23.4653C94.5224 23.4653 94.7041 23.3931 94.8586 23.2489C95.004 23.1046 95.0767 22.9288 95.0767 22.7214V18.6231H97.4074V22.4509C97.4074 23.2895 97.103 24.0108 96.4942 24.615C95.8945 25.2101 95.1675 25.5077 94.3134 25.5077C93.4683 25.5077 92.7413 25.2101 92.1325 24.615C91.5328 24.0108 91.2329 23.2895 91.2329 22.4509V11.6438C91.2329 10.8052 91.5328 10.0839 92.1325 9.47971Z" fill="#D7E4DA"/>
<path d="M99.0022 9.52029C99.611 8.91614 100.338 8.61407 101.183 8.61407C102.037 8.61407 102.764 8.91614 103.364 9.52029C103.973 10.1154 104.277 10.8368 104.277 11.6844V14.8765H101.946V11.4139C101.946 11.2065 101.874 11.0261 101.728 10.8729C101.574 10.7286 101.392 10.6564 101.183 10.6564C100.974 10.6564 100.797 10.7286 100.651 10.8729C100.506 11.0261 100.433 11.2065 100.433 11.4139V14.9847C100.433 15.183 100.492 15.3544 100.611 15.4986C100.747 15.6519 100.915 15.7286 101.115 15.7286H101.551C102.732 15.7286 103.541 16.2741 103.977 17.3652C104.114 17.7078 104.204 18.0866 104.25 18.5014C104.259 18.6276 104.268 18.7493 104.277 18.8665C104.277 18.9026 104.277 18.9387 104.277 18.9748V22.7349C104.204 23.5194 103.873 24.1776 103.282 24.7096C102.691 25.2417 101.992 25.5077 101.183 25.5077C100.383 25.5077 99.6883 25.2417 99.0976 24.7096C98.507 24.1776 98.1753 23.5239 98.1026 22.7484V19.2588H100.433V22.7214C100.433 22.9288 100.506 23.1046 100.651 23.2489C100.797 23.3931 100.974 23.4653 101.183 23.4653C101.392 23.4653 101.574 23.3931 101.728 23.2489C101.874 23.1046 101.946 22.9288 101.946 22.7214V19.0153C101.946 18.5194 101.719 18.2714 101.265 18.2714H101.115C100.243 18.2714 99.502 17.9333 98.8932 17.257C98.3661 16.6709 98.1026 15.9901 98.1026 15.2146V11.6844C98.1026 10.8368 98.4025 10.1154 99.0022 9.52029Z" fill="#D7E4DA"/>
<path d="M107.262 25.1966H104.972V8.88458H107.262V25.1966ZM107.262 7.24797H104.972V4.85392H107.262V7.24797Z" fill="#D7E4DA"/>
<path d="M111.91 19.7051V11.3868C111.91 11.1794 111.837 11.0036 111.692 10.8593C111.547 10.706 111.365 10.6294 111.147 10.6294C110.938 10.6294 110.761 10.706 110.615 10.8593C110.47 11.0036 110.397 11.1794 110.397 11.3868V19.7051C110.397 19.9125 110.47 20.0884 110.615 20.2326C110.761 20.3769 110.938 20.4491 111.147 20.4491C111.365 20.4491 111.547 20.3769 111.692 20.2326C111.837 20.0884 111.91 19.9125 111.91 19.7051ZM110.397 25.7782V29.2137C110.397 29.4211 110.47 29.5969 110.615 29.7412C110.761 29.8855 110.938 29.9576 111.147 29.9576C111.365 29.9576 111.547 29.8855 111.692 29.7412C111.837 29.5969 111.91 29.4211 111.91 29.2137V25.7782C111.91 25.5708 111.837 25.3904 111.692 25.2372C111.547 25.0929 111.365 25.0207 111.147 25.0207C110.938 25.0207 110.761 25.0929 110.615 25.2372C110.47 25.3904 110.397 25.5708 110.397 25.7782ZM114.391 8.92516V10.3995H113.968C114.15 10.8052 114.241 11.2245 114.241 11.6573V19.4346C114.241 20.2732 113.937 20.9946 113.328 21.5987C112.728 22.1939 112.001 22.4914 111.147 22.4914C110.911 22.4914 110.67 22.4599 110.424 22.3968C110.352 22.3607 110.27 22.3381 110.179 22.3291C110.17 22.3291 110.152 22.3291 110.125 22.3291C109.861 22.3472 109.729 22.4554 109.729 22.6537C109.729 22.8792 110.215 22.9919 111.188 22.9919C112.033 22.9919 112.751 23.294 113.341 23.8981C113.941 24.4932 114.241 25.2101 114.241 26.0487V28.9432C114.241 29.7818 113.937 30.5032 113.328 31.1073C112.728 31.7024 112.001 32 111.147 32C110.302 32 109.579 31.7024 108.98 31.1073C108.371 30.5032 108.066 29.7818 108.066 28.9432V26.0487C108.066 25.4445 108.294 24.7818 108.748 24.0604C108.212 23.6546 107.953 23.2038 107.971 22.7078C107.989 22.2119 108.266 21.8061 108.802 21.4905C108.312 20.688 108.066 20.0027 108.066 19.4346V11.6573C108.066 10.8097 108.371 10.0884 108.98 9.49324C109.579 8.89811 110.302 8.60054 111.147 8.60054C111.638 8.60054 112.106 8.70875 112.551 8.92516H114.391Z" fill="#D7E4DA"/>
<path d="M117.376 9.23625L117.39 9.22272C117.408 9.20469 117.435 9.18215 117.471 9.15509C117.571 9.07394 117.68 8.9973 117.798 8.92516C118.189 8.69973 118.616 8.58702 119.08 8.58702C120.534 8.58702 121.261 9.61046 121.261 11.6573V25.1966H118.93V11.3868C118.93 11.1794 118.857 10.9991 118.712 10.8458C118.557 10.7015 118.375 10.6294 118.166 10.6294C117.957 10.6294 117.78 10.7015 117.635 10.8458C117.48 10.9991 117.403 11.1794 117.403 11.3868V25.1966H115.086V8.88458H117.376V9.23625Z" fill="#D7E4DA"/>
<path d="M124.273 15.3634H125.8V11.3733C125.8 11.1659 125.727 10.9901 125.581 10.8458C125.427 10.7015 125.245 10.6294 125.036 10.6294C124.827 10.6294 124.65 10.7015 124.505 10.8458C124.35 10.9901 124.273 11.1659 124.273 11.3733V15.3634ZM122.855 9.47971C123.464 8.88458 124.191 8.58702 125.036 8.58702C125.89 8.58702 126.617 8.88458 127.217 9.47971C127.826 10.0839 128.13 10.8052 128.13 11.6438V17.6357H124.273V22.7214C124.273 22.9288 124.35 23.1046 124.505 23.2489C124.65 23.3931 124.827 23.4653 125.036 23.4653C125.245 23.4653 125.427 23.3931 125.581 23.2489C125.727 23.1046 125.8 22.9288 125.8 22.7214V18.6231H128.13V22.4509C128.13 23.2895 127.826 24.0108 127.217 24.615C126.617 25.2101 125.89 25.5077 125.036 25.5077C124.191 25.5077 123.464 25.2101 122.855 24.615C122.256 24.0108 121.956 23.2895 121.956 22.4509V11.6438C121.956 10.8052 122.256 10.0839 122.855 9.47971Z" fill="#D7E4DA"/>
<path d="M131.143 11.3733V22.7214C131.143 22.9288 131.22 23.1046 131.374 23.2489C131.52 23.3931 131.697 23.4653 131.906 23.4653C132.115 23.4653 132.297 23.3931 132.451 23.2489C132.597 23.1046 132.669 22.9288 132.669 22.7214V11.3733C132.669 11.1659 132.597 10.9901 132.451 10.8458C132.297 10.7015 132.115 10.6294 131.906 10.6294C131.697 10.6294 131.52 10.7015 131.374 10.8458C131.22 10.9901 131.143 11.1659 131.143 11.3733ZM129.725 9.47971C130.334 8.88458 131.061 8.58702 131.906 8.58702C132.76 8.58702 133.487 8.88458 134.087 9.47971C134.696 10.0839 135 10.8052 135 11.6438V22.4509C135 23.2895 134.696 24.0108 134.087 24.615C133.487 25.2101 132.76 25.5077 131.906 25.5077C131.061 25.5077 130.334 25.2101 129.725 24.615C129.125 24.0108 128.825 23.2895 128.825 22.4509V11.6438C128.825 10.8052 129.125 10.0839 129.725 9.47971Z" fill="#D7E4DA"/>
</svg>
