<svg width="12" height="12" viewBox="0 0 12 12" fill="none" xmlns="http://www.w3.org/2000/svg">
<path d="M11.7964 2.04949L9.95051 0.203594C9.8862 0.139062 9.80979 0.0878588 9.72565 0.0529215C9.64151 0.0179843 9.5513 0 9.4602 0C9.36909 0 9.27888 0.0179843 9.19475 0.0529215C9.11061 0.0878588 9.03419 0.139062 8.96988 0.203594L3.43221 5.74127C3.36772 5.80553 3.31666 5.88197 3.282 5.96615C3.24734 6.05032 3.22977 6.14055 3.23031 6.23159V8.07748C3.23031 8.26106 3.30324 8.43713 3.43305 8.56694C3.56287 8.69676 3.73894 8.76969 3.92252 8.76969H5.76841C5.9518 8.76829 6.12752 8.69593 6.25873 8.56779L11.7964 3.03012C11.8609 2.96581 11.9121 2.88939 11.9471 2.80525C11.982 2.72111 12 2.63091 12 2.5398C12 2.4487 11.982 2.35849 11.9471 2.27435C11.9121 2.19021 11.8609 2.1138 11.7964 2.04949ZM9.4602 1.67454L10.3255 2.5398L9.69093 3.17433L8.82567 2.30907L9.4602 1.67454ZM5.47999 7.38527H4.61473V6.52001L7.84504 3.2897L8.7103 4.15496L5.47999 7.38527ZM11.5368 6.2662V10.8463C11.5353 11.1518 11.4133 11.4444 11.1972 11.6604C10.9812 11.8764 10.6887 11.9985 10.3831 12H1.15368C0.848174 11.9985 0.555611 11.8764 0.339581 11.6604C0.123551 11.4444 0.0015162 11.1518 0 10.8463V1.61686C0.0015162 1.31135 0.123551 1.01878 0.339581 0.802754C0.555611 0.586724 0.848174 0.464689 1.15368 0.463173H5.7338C5.91739 0.463173 6.09345 0.536102 6.22327 0.665916C6.35308 0.795731 6.42601 0.971797 6.42601 1.15538C6.42601 1.33897 6.35308 1.51503 6.22327 1.64485C6.09345 1.77466 5.91739 1.84759 5.7338 1.84759H1.38442V10.6156H10.1524V6.2662C10.1524 6.08261 10.2253 5.90655 10.3552 5.77673C10.485 5.64692 10.661 5.57399 10.8446 5.57399C11.0282 5.57399 11.2043 5.64692 11.3341 5.77673C11.4639 5.90655 11.5368 6.08261 11.5368 6.2662Z" fill="#000801"/>
</svg>
