<svg width="70" height="70" viewBox="0 0 70 70" fill="none" xmlns="http://www.w3.org/2000/svg">
<circle cx="35" cy="35" r="35" fill="#3BDED7"/>
<path d="M19.7314 43.9067V50.2686H26.0933L44.8567 31.4882L38.4948 25.1263L19.7314 43.9067ZM53 45.7898L45.7898 53L36.968 44.1781L39.9708 41.1753L41.6673 42.8718L45.8577 38.6645L48.2667 41.0735L45.7898 43.4826L47.5881 45.1791L49.9972 42.804L53 45.7898ZM25.8558 33.0151L17 24.2102L24.2102 17L27.196 20.0028L23.0057 24.2102L24.8209 26.0085L28.9943 21.8011L31.4034 24.2102L28.9943 26.6023L30.6909 28.2988L25.8558 33.0151ZM49.7766 26.5174C50.4383 25.8558 50.4383 24.8209 49.7766 24.1254L45.8068 20.2234C45.1791 19.5617 44.0763 19.5617 43.4147 20.2234L40.2931 23.328L46.655 29.6899L49.7766 26.5174Z" fill="#000801"/>
</svg>
