<svg width="120" height="138" viewBox="0 0 120 138" fill="none" xmlns="http://www.w3.org/2000/svg">
<path d="M117.25 98.5249C109.894 90.5542 100.966 84.1931 91.0301 79.8424C81.0941 75.4917 70.3648 73.2456 59.5179 73.2456C48.6711 73.2456 37.9418 75.4917 28.0057 79.8424C18.0697 84.1931 9.1422 90.5542 1.78554 98.5249C0.649737 99.7809 0.0143863 101.41 0 103.103V130.573C0.0240748 132.379 0.758222 134.102 2.04352 135.37C3.32882 136.638 5.06185 137.349 6.86745 137.349H112.168C113.99 137.349 115.737 136.625 117.024 135.338C118.312 134.05 119.036 132.303 119.036 130.481V103.012C118.999 101.35 118.365 99.7573 117.25 98.5249V98.5249Z" fill="#3BDED7"/>
<path d="M60.0481 64.0963C77.7478 64.0963 92.0963 49.7478 92.0963 32.0481C92.0963 14.3484 77.7478 0 60.0481 0C42.3484 0 28 14.3484 28 32.0481C28 49.7478 42.3484 64.0963 60.0481 64.0963Z" fill="#3BDED7"/>
</svg>
