<svg width="70" height="70" viewBox="0 0 70 70" fill="none" xmlns="http://www.w3.org/2000/svg">
<circle cx="35" cy="35" r="35" fill="#3BDED7"/>
<path d="M36.8571 45.1111V27.8889H24.5238V45.1111H36.8571ZM36.8571 21C37.7917 21 38.688 21.3629 39.3489 22.0089C40.0097 22.6548 40.381 23.5309 40.381 24.4444V48.5556C40.381 49.4691 40.0097 50.3452 39.3489 50.9911C38.688 51.6371 37.7917 52 36.8571 52H24.5238C23.5892 52 22.6929 51.6371 22.0321 50.9911C21.3713 50.3452 21 49.4691 21 48.5556V24.4444C21 23.5309 21.3713 22.6548 22.0321 22.0089C22.6929 21.3629 23.5892 21 24.5238 21H36.8571ZM46.5476 21H55.3571C56.0581 21 56.7303 21.2722 57.2259 21.7566C57.7216 22.2411 58 22.8982 58 23.5833V28.75C58 29.4351 57.7216 30.0922 57.2259 30.5767C56.7303 31.0612 56.0581 31.3333 55.3571 31.3333H49.1905L43.9048 36.5V23.5833C43.9048 22.8982 44.1832 22.2411 44.6788 21.7566C45.1745 21.2722 45.8467 21 46.5476 21Z" fill="#000801"/>
</svg>
