<svg width="146" height="179" viewBox="0 0 146 179" fill="none" xmlns="http://www.w3.org/2000/svg">
<path d="M77.0556 16.2052H52.7223C51.6468 16.2052 50.615 16.632 49.8546 17.3918C49.0942 18.1516 48.6667 19.182 48.6667 20.2565C48.6667 21.3309 49.0942 22.3614 49.8546 23.1212C50.615 23.8809 51.6468 24.3077 52.7223 24.3077H77.0556C78.1312 24.3077 79.1629 23.8809 79.9233 23.1212C80.6837 22.3614 81.1112 21.3309 81.1112 20.2565C81.1112 19.182 80.6837 18.1516 79.9233 17.3918C79.1629 16.632 78.1312 16.2052 77.0556 16.2052Z" fill="#3BDED7"/>
<path d="M93.2777 24.3077C95.5176 24.3077 97.3333 22.4939 97.3333 20.2565C97.3333 18.019 95.5176 16.2052 93.2777 16.2052C91.0378 16.2052 89.2222 18.019 89.2222 20.2565C89.2222 22.4939 91.0378 24.3077 93.2777 24.3077Z" fill="#3BDED7"/>
<path d="M133.833 66.8459H125.722V20.2563C125.716 14.886 123.577 9.73747 119.776 5.94005C115.974 2.14263 110.82 0.00644152 105.444 0H40.5556C35.1795 0.00644152 30.0257 2.14263 26.224 5.94005C22.4228 9.73747 20.2843 14.886 20.2778 20.2563V32.4101H12.1667C8.93986 32.4101 5.84523 33.6908 3.56354 35.97C1.28184 38.2492 0 41.3408 0 44.564V72.9228C0 76.146 1.28184 79.2375 3.56354 81.5168C5.84523 83.796 8.93986 85.0766 12.1667 85.0766H20.2778V101.282H12.1667C8.93986 101.282 5.84523 102.562 3.56354 104.842C1.28184 107.121 0 110.212 0 113.436V141.794C0 145.018 1.28184 148.109 3.56354 150.388C5.84523 152.668 8.93986 153.948 12.1667 153.948H20.2778V157.999C20.2843 163.37 22.4228 168.518 26.224 172.316C30.0257 176.113 35.1795 178.249 40.5556 178.256H105.444C110.82 178.249 115.974 176.113 119.776 172.316C123.577 168.518 125.716 163.37 125.722 157.999V119.512H133.833C137.06 119.512 140.155 118.232 142.436 115.953C144.718 113.673 146 110.582 146 107.359V78.9997C146 75.7765 144.718 72.685 142.436 70.4058C140.155 68.1265 137.06 66.8459 133.833 66.8459ZM8.11111 72.9228V44.564C8.11111 43.4896 8.5384 42.4589 9.29894 41.6993C10.0595 40.9397 11.0911 40.5127 12.1667 40.5127H52.7222C53.7978 40.5127 54.8295 40.9397 55.5899 41.6993C56.3503 42.4589 56.7778 43.4896 56.7778 44.564V80.0409C53.5601 78.0461 49.8501 76.9842 46.063 76.9741H12.1667C11.0911 76.9741 10.0595 76.5471 9.29894 75.7875C8.5384 75.0279 8.11111 73.9972 8.11111 72.9228ZM8.11111 141.794V113.436C8.11111 112.361 8.5384 111.33 9.29894 110.571C10.0595 109.811 11.0911 109.384 12.1667 109.384H52.7222C53.7978 109.384 54.8295 109.811 55.5899 110.571C56.3503 111.33 56.7778 112.361 56.7778 113.436V148.912C53.5601 146.918 49.8501 145.856 46.063 145.846H12.1667C11.0911 145.846 10.0595 145.419 9.29894 144.659C8.5384 143.899 8.11111 142.869 8.11111 141.794ZM105.444 170.153H40.5556C37.329 170.153 34.2342 168.873 31.9525 166.593C29.6708 164.314 28.3889 161.223 28.3889 157.999V153.948H46.063C47.6791 153.953 49.2782 154.278 50.7679 154.904C52.2575 155.529 53.6084 156.444 54.7419 157.594L57.9417 160.835C58.5058 161.409 59.2277 161.801 60.0161 161.963C60.8041 162.125 61.6225 162.049 62.3675 161.745C63.1121 161.441 63.7497 160.922 64.1986 160.256C64.6476 159.588 64.8881 158.803 64.8889 157.999V153.948H117.611V157.999C117.611 161.223 116.329 164.314 114.047 166.593C111.766 168.873 108.671 170.153 105.444 170.153ZM117.611 145.846H64.8889V113.436C64.8889 110.212 63.6069 107.121 61.3253 104.842C59.0436 102.562 55.9488 101.282 52.7222 101.282H28.3889V85.0766H46.063C47.6791 85.0815 49.2782 85.406 50.7679 86.0319C52.2575 86.6574 53.6084 87.5722 54.7419 88.7228L57.9417 91.9638C58.5058 92.5371 59.2277 92.9292 60.0161 93.0913C60.8041 93.2533 61.6225 93.1776 62.3675 92.8733C63.1121 92.5695 63.7497 92.0509 64.1986 91.3841C64.6476 90.7168 64.8881 89.9317 64.8889 89.1279V44.564C64.8889 41.3408 63.6069 38.2492 61.3253 35.97C59.0436 33.6908 55.9488 32.4101 52.7222 32.4101H28.3889V20.2563C28.3889 17.033 29.6708 13.9416 31.9525 11.6623C34.2342 9.38302 37.329 8.10254 40.5556 8.10254H105.444C108.671 8.10254 111.766 9.38302 114.047 11.6623C116.329 13.9416 117.611 17.033 117.611 20.2563V66.8459H93.2778C90.0512 66.8459 86.9564 68.1265 84.6747 70.4058C82.3931 72.685 81.1111 75.7765 81.1111 78.9997V123.564C81.1119 124.367 81.3524 125.153 81.8014 125.82C82.2503 126.487 82.8878 127.005 83.6324 127.309C84.3775 127.613 85.1959 127.689 85.9839 127.527C86.7723 127.365 87.4941 126.973 88.0583 126.4L91.2581 123.159C92.3916 122.008 93.7425 121.093 95.2321 120.468C96.7217 119.842 98.3209 119.517 99.937 119.512H117.611V145.846ZM137.889 107.359C137.889 108.433 137.461 109.464 136.701 110.223C135.941 110.983 134.909 111.41 133.833 111.41H99.937C96.1499 111.42 92.4399 112.482 89.2222 114.477V78.9997C89.2222 77.9253 89.6497 76.8947 90.4101 76.1351C91.1705 75.3755 92.2022 74.9485 93.2778 74.9485H133.833C134.909 74.9485 135.941 75.3755 136.701 76.1351C137.461 76.8947 137.889 77.9253 137.889 78.9997V107.359Z" fill="#3BDED7"/>
<path d="M40.5556 124.374L30.4168 118.524C29.4917 117.991 28.4421 117.71 27.3743 117.71C26.306 117.71 25.2565 117.991 24.3318 118.525C23.4067 119.059 22.639 119.827 22.1053 120.751C21.5716 121.675 21.2909 122.724 21.2917 123.791V135.483C21.2909 136.55 21.5716 137.598 22.1053 138.522C22.639 139.447 23.4067 140.215 24.3318 140.749C25.2565 141.282 26.306 141.563 27.3743 141.564C28.4421 141.564 29.4917 141.283 30.4168 140.749L40.5556 134.907C41.4823 134.375 42.2521 133.607 42.787 132.683C43.3223 131.758 43.6042 130.709 43.6042 129.641C43.6042 128.573 43.3223 127.524 42.787 126.599C42.2521 125.674 41.4823 124.907 40.5556 124.374ZM29.4029 131.978V127.299L33.4584 129.641L29.4029 131.978Z" fill="#3BDED7"/>
<path d="M116.597 82.0382H110.514C108.363 82.0382 106.3 82.8918 104.779 84.4114C103.257 85.9311 102.403 87.992 102.403 90.1407V96.2176C102.403 98.3664 103.257 100.427 104.779 101.947C106.3 103.467 108.363 104.32 110.514 104.32H116.597C118.748 104.32 120.811 103.467 122.333 101.947C123.854 100.427 124.708 98.3664 124.708 96.2176V90.1407C124.708 87.992 123.854 85.9311 122.333 84.4114C120.811 82.8918 118.748 82.0382 116.597 82.0382ZM110.514 96.2176V90.1407H116.597V96.2176H110.514Z" fill="#3BDED7"/>
<path d="M48.6666 52.6665C48.6666 51.5921 48.2392 50.5615 47.4787 49.8019C46.7183 49.0422 45.6866 48.6152 44.6111 48.6152H20.2777C19.2022 48.6152 18.1705 49.0422 17.41 49.8019C16.6496 50.5615 16.2222 51.5921 16.2222 52.6665C16.2222 53.7409 16.6496 54.7715 17.41 55.5312C18.1705 56.2908 19.2022 56.7178 20.2777 56.7178H44.6111C45.6866 56.7178 46.7183 56.2908 47.4787 55.5312C48.2392 54.7715 48.6666 53.7409 48.6666 52.6665Z" fill="#3BDED7"/>
<path d="M36.4999 60.7689H20.2777C19.2022 60.7689 18.1705 61.1959 17.41 61.9555C16.6496 62.7152 16.2222 63.7458 16.2222 64.8202C16.2222 65.8946 16.6496 66.9252 17.41 67.6848C18.1705 68.4445 19.2022 68.8715 20.2777 68.8715H36.4999C37.5755 68.8715 38.6072 68.4445 39.3676 67.6848C40.128 66.9252 40.5555 65.8946 40.5555 64.8202C40.5555 63.7458 40.128 62.7152 39.3676 61.9555C38.6072 61.1959 37.5755 60.7689 36.4999 60.7689Z" fill="#3BDED7"/>
</svg>
