<svg width="181" height="50" viewBox="0 0 181 50" fill="none" xmlns="http://www.w3.org/2000/svg">
<circle cx="90.5" cy="25" r="25" fill="#3BDED7"/>
<path d="M90.57 39.14C82.8127 39.14 76.5 32.8273 76.5 25.07C76.5 17.3127 82.8127 11 90.57 11C98.3273 11 104.64 17.3127 104.64 25.07C104.64 32.8273 98.3273 39.14 90.57 39.14ZM90.57 16.9537C86.096 16.9537 82.4537 20.596 82.4537 25.07C82.4537 29.544 86.096 33.1863 90.57 33.1863C95.044 33.1863 98.6863 29.544 98.6863 25.07C98.6863 20.596 95.044 16.9537 90.57 16.9537Z" fill="#8BFBA3" stroke="black" stroke-width="1.5" stroke-miterlimit="10"/>
<circle cx="155.5" cy="25" r="25" fill="#3BDED7"/>
<g clip-path="url(#clip0_421_822)">
<path d="M156.223 41.7432L156.223 41.7429L161.64 31.8369L161.641 31.8359C161.8 31.5455 162.04 31.3012 162.338 31.1395C162.339 31.1392 162.339 31.1389 162.34 31.1386L172.243 25.7228C172.419 25.6265 172.419 25.3735 172.243 25.2772L162.337 19.8598L162.336 19.8593C162.045 19.6999 161.801 19.4599 161.639 19.1618C161.639 19.1613 161.639 19.1608 161.639 19.1602L156.223 9.25726C156.126 9.08117 155.874 9.08117 155.777 9.25726L150.36 19.1631L150.359 19.1641C150.2 19.4546 149.96 19.6989 149.662 19.8607C149.661 19.8609 149.661 19.8611 149.66 19.8614L139.757 25.2772C139.581 25.3735 139.581 25.6265 139.757 25.7228L149.663 31.1401L149.664 31.1407C149.954 31.3001 150.199 31.5401 150.36 31.8381C150.361 31.8387 150.361 31.8392 150.361 31.8397L155.777 41.7429L155.777 41.7432C155.874 41.9199 156.126 41.9199 156.223 41.7432Z" fill="#8BFBA3" stroke="black" stroke-width="1.5"/>
</g>
<circle cx="25.5" cy="25" r="25" fill="#3BDED7"/>
<g clip-path="url(#clip1_421_822)">
<path d="M26.2226 41.7432L26.2227 41.7429L31.6402 31.8369L31.6407 31.8359C31.8001 31.5455 32.0401 31.3012 32.3381 31.1395C32.3387 31.1392 32.3392 31.1389 32.3398 31.1386L42.2427 25.7228C42.4188 25.6265 42.4188 25.3735 42.2427 25.2772L32.3369 19.8598L32.3359 19.8593C32.0455 19.6999 31.8012 19.4599 31.6395 19.1618C31.6392 19.1613 31.6389 19.1608 31.6386 19.1602L26.2228 9.25726C26.1265 9.08117 25.8735 9.08117 25.7772 9.25726L20.3599 19.1631L20.3593 19.1641C20.1999 19.4546 19.9597 19.6989 19.6616 19.8607C19.6611 19.8609 19.6607 19.8611 19.6603 19.8614L9.75727 25.2772C9.58119 25.3735 9.58119 25.6265 9.75727 25.7228L19.6631 31.1401L19.6641 31.1407C19.9545 31.3001 20.1988 31.5401 20.3605 31.8381C20.3608 31.8387 20.3611 31.8392 20.3614 31.8397L25.7773 41.7429L25.7774 41.7432C25.874 41.9199 26.1261 41.9199 26.2226 41.7432Z" fill="#8BFBA3" stroke="black" stroke-width="1.5"/>
</g>
<defs>
<clipPath id="clip0_421_822">
<rect width="35" height="35" fill="white" transform="matrix(1 0 0 -1 138.5 43)"/>
</clipPath>
<clipPath id="clip1_421_822">
<rect width="35" height="35" fill="white" transform="matrix(1 0 0 -1 8.5 43)"/>
</clipPath>
</defs>
</svg>
