<svg width="32" height="28" viewBox="0 0 32 28" fill="none" xmlns="http://www.w3.org/2000/svg">
<path d="M6.4 28V24.8889L8 23.3333H3.2C2.32 23.3333 1.56693 23.029 0.9408 22.4202C0.314667 21.8115 0.00106667 21.0788 0 20.2222V3.11111C0 2.25556 0.3136 1.52341 0.9408 0.914667C1.568 0.305926 2.32107 0.00103704 3.2 0H28.8C29.68 0 30.4336 0.304889 31.0608 0.914667C31.688 1.52444 32.0011 2.25659 32 3.11111V20.2222C32 21.0778 31.6869 21.8104 31.0608 22.4202C30.4347 23.03 29.6811 23.3344 28.8 23.3333H24L25.6 24.8889V28H6.4ZM3.2 20.2222H28.8V3.11111H3.2V20.2222Z" fill="#000801"/>
</svg>
