<svg width="185" height="178" viewBox="0 0 185 178" fill="none" xmlns="http://www.w3.org/2000/svg">
<path fill-rule="evenodd" clip-rule="evenodd" d="M173.31 178H11.136C4.97335 178 0 173.031 0 166.875V11.125C0 4.96844 4.97335 0 11.136 0H173.31C179.473 0 184.446 4.96844 184.446 11.125V166.875C184.446 173.031 179.473 178 173.31 178ZM11.136 8.64077C9.73046 8.64077 8.6493 9.82888 8.6493 11.125V166.875C8.6493 168.171 9.73046 169.359 11.136 169.359H173.31C174.716 169.359 175.797 168.171 175.797 166.875V11.125C175.797 9.82888 174.716 8.64077 173.31 8.64077H11.136Z" fill="#3BDED7"/>
<path fill-rule="evenodd" clip-rule="evenodd" d="M180.122 52.6009H4.32465C1.94609 52.6009 0 50.6567 0 48.2805C0 45.9043 1.94609 43.9601 4.32465 43.9601H180.122C182.5 43.9601 184.446 45.9043 184.446 48.2805C184.446 50.7647 182.5 52.6009 180.122 52.6009Z" fill="#3BDED7"/>
<path fill-rule="evenodd" clip-rule="evenodd" d="M37.9487 38.2354H22.9206C20.4339 38.2354 18.5959 36.2912 18.5959 33.915V18.7937C18.5959 16.4174 20.4339 14.4733 22.9206 14.4733H37.9487C40.3273 14.4733 42.2734 16.4174 42.2734 18.7937V33.915C42.2734 36.2912 40.3273 38.2354 37.9487 38.2354ZM27.1371 29.5946H33.6241V23.114H27.1371V29.5946Z" fill="#3BDED7"/>
<path fill-rule="evenodd" clip-rule="evenodd" d="M75.8976 30.6747H60.5451C58.1666 30.6747 56.2205 28.7305 56.2205 26.3543C56.2205 23.9781 58.1666 22.0339 60.5451 22.0339H75.8976C78.2762 22.0339 80.2223 23.9781 80.2223 26.3543C80.2223 28.7305 78.2762 30.6747 75.8976 30.6747Z" fill="#3BDED7"/>
<path fill-rule="evenodd" clip-rule="evenodd" d="M108.116 30.6747H92.7636C90.3851 30.6747 88.439 28.7305 88.439 26.3543C88.439 23.9781 90.3851 22.0339 92.7636 22.0339H108.116C110.495 22.0339 112.441 23.9781 112.441 26.3543C112.441 28.7305 110.495 30.6747 108.116 30.6747Z" fill="#3BDED7"/>
<path fill-rule="evenodd" clip-rule="evenodd" d="M111.684 143.653C110.603 143.653 109.414 143.221 108.657 142.357C106.927 140.737 106.927 137.928 108.657 136.308L130.28 114.706L108.657 92.9963C106.927 91.3761 106.927 88.6759 108.657 86.9477C110.279 85.2196 112.981 85.2196 114.711 86.9477L139.362 111.574C141.092 113.302 141.092 116.002 139.362 117.73L114.711 142.357C113.846 143.221 112.765 143.653 111.684 143.653Z" fill="#3BDED7"/>
<path fill-rule="evenodd" clip-rule="evenodd" d="M72.7623 143.653C71.6811 143.653 70.5999 143.221 69.735 142.357L45.0845 117.73C43.3546 116.002 43.3546 113.302 45.0845 111.574L69.735 86.9477C71.4649 85.2196 74.1678 85.2196 75.7895 86.9477C77.5194 88.6759 77.5194 91.3761 75.7895 92.9963L54.1663 114.706L75.7895 136.308C77.5194 137.928 77.5194 140.737 75.7895 142.357C75.0327 143.221 73.8434 143.653 72.7623 143.653Z" fill="#3BDED7"/>
<path fill-rule="evenodd" clip-rule="evenodd" d="M86.3848 147.541C86.0604 147.541 85.8442 147.541 85.6279 147.541C83.2494 147.109 81.6276 144.841 82.0601 142.465C89.6282 100.449 93.6285 78.5231 93.9529 77.335C94.7097 75.1748 97.1964 73.8787 99.4668 74.6347C101.629 75.3908 102.927 77.767 102.278 79.9272C101.629 82.6274 94.9259 119.567 90.6013 143.977C90.2769 146.137 88.439 147.541 86.3848 147.541Z" fill="#3BDED7"/>
<path fill-rule="evenodd" clip-rule="evenodd" d="M164.337 148.945H131.902C129.523 148.945 127.577 147.001 127.577 144.625C127.577 142.249 129.523 140.305 131.902 140.305H164.337C166.715 140.305 168.661 142.249 168.661 144.625C168.661 147.001 166.715 148.945 164.337 148.945Z" fill="#3BDED7"/>
<path fill-rule="evenodd" clip-rule="evenodd" d="M164.337 163.851H152.011C149.633 163.851 147.687 161.906 147.687 159.53C147.687 157.154 149.633 155.21 152.011 155.21H164.337C166.715 155.21 168.661 157.154 168.661 159.53C168.661 161.906 166.715 163.851 164.337 163.851Z" fill="#3BDED7"/>
</svg>
