<svg width="70" height="70" viewBox="0 0 70 70" fill="none" xmlns="http://www.w3.org/2000/svg">
<circle cx="35" cy="35" r="35" fill="#3BDED7"/>
<path d="M25.4 49V45.8889L27 44.3333H22.2C21.32 44.3333 20.5669 44.029 19.9408 43.4202C19.3147 42.8115 19.0011 42.0788 19 41.2222V24.1111C19 23.2556 19.3136 22.5234 19.9408 21.9147C20.568 21.3059 21.3211 21.001 22.2 21H47.8C48.68 21 49.4336 21.3049 50.0608 21.9147C50.688 22.5244 51.0011 23.2566 51 24.1111V41.2222C51 42.0778 50.6869 42.8104 50.0608 43.4202C49.4347 44.03 48.6811 44.3344 47.8 44.3333H43L44.6 45.8889V49H25.4ZM22.2 41.2222H47.8V24.1111H22.2V41.2222Z" fill="#000801"/>
</svg>
