<svg width="169" height="167" viewBox="0 0 169 167" fill="none" xmlns="http://www.w3.org/2000/svg">
<path d="M163.34 16.5099C162.46 16.2499 161.54 16.1399 160.51 15.9299C160.77 15.5599 160.97 15.2599 161.18 14.9699C162.84 12.6899 162.73 9.9999 160.78 7.9299C159.09 6.1399 157.34 4.3999 155.56 2.6899C153.12 0.359899 150.09 0.399899 147.67 2.7999C143.82 6.6099 139.95 10.4199 136.18 14.3199C134.95 15.5999 133.7 16.1199 131.91 16.1199C90.99 16.0699 50.06 16.0799 9.14002 16.0899C7.94002 16.0899 6.70999 16.1099 5.54999 16.3899C2.57999 17.1099 0.380004 19.8599 0.160004 22.9199C0.120004 23.5199 0.140015 24.1199 0.140015 24.7299C0.140015 58.0399 0.140015 91.3499 0.140015 124.65C0.140015 131.31 3.73 134.91 10.37 134.91C28.72 134.91 47.07 134.91 65.43 134.91C66.08 134.91 66.72 134.91 67.46 134.91C67.46 140.72 67.46 146.4 67.46 152.34C66.27 152.34 65.04 152.34 63.81 152.34C61.18 152.34 58.55 152.32 55.92 152.35C52.48 152.39 50.14 154.61 49.97 158.05C49.91 159.19 49.93 160.36 50.07 161.49C50.39 163.96 52.38 165.89 54.85 166.2C55.5 166.28 56.16 166.29 56.82 166.29C75.12 166.29 93.41 166.27 111.71 166.31C114.37 166.32 116.75 165.79 117.91 163.22C119.13 160.53 119.16 157.65 117.68 155C116.64 153.14 114.84 152.34 112.71 152.34C108.88 152.34 105.06 152.34 101.13 152.34C101.13 146.51 101.13 140.79 101.13 134.91C101.77 134.91 102.35 134.91 102.94 134.91C110.66 134.91 118.39 134.91 126.11 134.91C126.6 134.91 127.11 134.96 127.59 134.88C128.95 134.64 129.78 133.83 129.75 132.42C129.73 131.02 128.93 130.19 127.53 130.02C126.94 129.95 126.33 129.99 125.72 129.99C88.58 129.99 51.43 129.94 14.29 130.02C5.29001 130.04 4.79999 129.68 5.04999 120.67C5.06999 120.03 5.04999 119.38 5.04999 118.65C57.89 118.65 110.56 118.65 163.37 118.65C163.37 121.38 163.56 124.11 163.31 126.79C163.12 128.82 161.28 129.97 158.96 129.98C152.55 130 146.14 129.98 139.73 130C139.04 130 138.28 130.07 137.67 130.35C136.6 130.84 136.24 131.83 136.48 132.97C136.76 134.28 137.68 134.89 138.97 134.91C141.38 134.94 143.79 134.92 146.2 134.92C150.31 134.92 154.42 134.92 158.53 134.92C163.54 134.91 166.5 132.8 168.13 128.07C168.18 127.93 168.32 127.82 168.41 127.7C168.41 92.4199 168.41 57.1399 168.41 21.8599C167.43 19.4199 166.05 17.3099 163.34 16.5099ZM72.62 134.99C80.46 134.99 88.17 134.99 95.99 134.99C95.99 140.76 95.99 146.47 95.99 152.27C88.2 152.27 80.46 152.27 72.62 152.27C72.62 146.5 72.62 140.75 72.62 134.99ZM111.48 157.29C113.5 157.29 114.53 158.91 113.55 160.73C113.34 161.13 112.46 161.34 111.89 161.35C105.37 161.39 98.85 161.38 92.34 161.38C89.66 161.38 86.97 161.38 84.29 161.38C75.2 161.38 66.11 161.38 57.01 161.38C55.08 161.38 54.02 159.55 55.06 157.86C55.29 157.49 56.07 157.32 56.6 157.31C60.6 157.27 64.6 157.29 68.59 157.29C82.89 157.29 97.18 157.29 111.48 157.29ZM151.42 6.2799C153.26 8.1199 155.16 10.0199 156.95 11.8099C155.46 13.2899 153.74 15.0099 152.08 16.6499C150.34 14.9099 148.43 12.9899 146.51 11.0599C148.15 9.4599 149.87 7.7899 151.42 6.2799ZM142.64 14.8599C144.58 16.8399 146.45 18.7299 148.4 20.7199C147.99 21.0899 147.45 21.5899 146.95 22.0499C145.09 20.1899 143.19 18.2999 141.13 16.2399C141.61 15.7999 142.15 15.3099 142.64 14.8599ZM137.64 20.3499C139.34 22.0699 141.25 23.9799 143.05 25.7999C133.52 35.3299 123.86 44.9899 114.28 54.5599C112.49 52.7799 110.6 50.8999 108.85 49.1499C118.41 39.5799 128.07 29.9299 137.64 20.3499ZM135.76 42.6899C138.27 43.4799 140 45.8699 139.98 48.5299C139.95 51.4499 137.84 53.9699 135.03 54.4299C131.95 54.9299 129.11 53.2599 128.16 50.3899C127.77 49.2099 127.84 48.2299 128.88 47.3099C130.28 46.0899 131.6 44.7599 132.82 43.3599C133.7 42.3599 134.65 42.3399 135.76 42.6899ZM109.9 57.6699C107.63 58.5999 105.43 59.4999 102.74 60.5999C103.82 57.9499 104.73 55.7199 105.66 53.4499C107.11 54.8899 108.45 56.2299 109.9 57.6699ZM163.51 111.92C163.51 112.41 163.51 112.89 163.51 113.51C110.7 113.51 57.99 113.51 5.07001 113.51C5.07001 112.79 5.07001 112.19 5.07001 111.6C5.07001 82.6799 5.07001 53.7499 5.07001 24.8299C5.07001 21.6899 5.71 21.0299 8.78 21.0299C48.33 21.0299 87.88 21.0299 127.43 21.0299C127.91 21.0299 128.4 21.0299 128.88 21.0299C127.32 22.8399 126.33 24.9099 123.27 24.8999C96.65 24.7699 70.02 24.8199 43.4 24.8199C42.85 24.8199 42.3 24.7899 41.76 24.8399C40.36 24.9699 39.54 25.7599 39.47 27.1599C39.4 28.5699 40.2 29.4199 41.55 29.6899C42.13 29.8099 42.75 29.7499 43.35 29.7499C68.38 29.7499 93.42 29.7499 118.45 29.7499C119.04 29.7499 119.63 29.7499 120.58 29.7499C120 30.3899 119.64 30.8199 119.24 31.2199C114.17 36.2999 109.07 41.3399 104.04 46.4699C103.15 47.3799 102.39 48.5299 101.89 49.6999C100.17 53.6599 98.62 57.6999 96.95 61.6799C96.3 63.2299 96.18 64.6499 97.46 65.9099C98.68 67.1099 100.06 67.0599 101.56 66.4399C105.75 64.6999 109.98 63.0399 114.15 61.2599C115.13 60.8399 116.03 60.1299 116.8 59.3899C119.05 57.2299 121.22 54.9899 123.55 52.6399C126.53 58.0999 130.93 60.6299 137.01 58.9999C141.29 57.8499 143.97 54.8099 144.69 50.4499C145.61 44.8399 143.1 40.8299 138.07 38.1999C140.77 35.4899 143.39 32.8399 146.04 30.2399C146.31 29.9699 146.8 29.7899 147.19 29.7799C149.65 29.7399 152.11 29.7599 154.7 29.7599C154.7 54.8499 154.7 79.8499 154.7 104.85C154.58 104.96 154.46 105.07 154.34 105.18C153.86 104.76 153.22 104.43 152.92 103.91C150.33 99.5299 147.8 95.1099 145.26 90.7099C145.04 90.3299 144.84 89.9399 144.59 89.5799C143.7 88.2899 142.38 87.9399 141.19 88.6599C140.01 89.3699 139.64 90.7299 140.4 92.0999C141.97 94.9199 143.6 97.7099 145.22 100.5C146.03 101.91 146.85 103.32 147.79 104.94C147.09 104.97 146.62 105.01 146.16 105.01C135.75 105.01 125.34 104.99 114.94 105.04C113.81 105.04 113.13 104.74 112.63 103.72C111.76 101.97 110.05 100.28 110.03 98.5499C110.01 96.8899 111.66 95.1999 112.62 93.5399C117.08 85.8099 121.54 78.0899 126.01 70.3699C126.28 69.9099 126.56 69.4499 126.94 68.8199C129.26 72.8399 131.5 76.7199 133.74 80.5899C134.01 81.0599 134.27 81.5499 134.58 81.9999C135.45 83.2599 136.82 83.5899 138 82.8399C139.11 82.1499 139.5 80.7999 138.8 79.5299C137.29 76.7999 135.7 74.1099 134.15 71.4099C133.06 69.5099 131.99 67.5999 130.86 65.7299C128.83 62.3499 124.96 62.3499 122.97 65.7799C117.91 74.4799 112.89 83.2199 107.86 91.9399C107.56 92.4599 107.24 92.9499 106.84 93.5999C104.76 90.0199 102.76 86.5699 100.77 83.1199C95.93 74.7299 91.08 66.3499 86.26 57.9499C85.2 56.1099 83.77 55.0799 81.58 55.3399C80.03 55.5199 79 56.4099 78.25 57.7199C76.57 60.6499 74.87 63.5699 72.92 66.9299C72.88 65.9999 72.84 65.5499 72.84 65.0999C72.84 57.1599 72.84 49.2099 72.83 41.2699C72.82 37.2199 70.62 34.8799 66.58 34.8699C52.83 34.8299 39.08 34.8299 25.33 34.8699C21.29 34.8799 19.07 37.1899 19.06 41.2699C19.04 58.7399 19.04 76.2199 19.06 93.6899C19.06 97.1999 20.54 98.6099 24.12 98.6199C33.6 98.6299 43.07 98.6199 52.55 98.6199C53.13 98.6199 53.71 98.6199 54.61 98.6199C53.35 100.8 52.29 102.7 51.15 104.54C50.98 104.82 50.42 104.99 50.05 104.99C38.06 105.01 26.06 105.01 13.92 105.01C13.92 79.9299 13.92 54.9399 13.92 29.7699C15.06 29.7699 16.2 29.7699 17.33 29.7699C21.49 29.7699 25.66 29.7799 29.82 29.7599C31.73 29.7499 32.84 28.7999 32.82 27.2599C32.81 25.7199 31.72 24.8399 29.77 24.8399C24.29 24.8299 18.81 24.8199 13.34 24.8399C10.56 24.8499 8.99 26.3899 8.84 29.1799C8.82 29.5599 8.82999 29.9499 8.82999 30.3299C8.82999 55.0399 8.82999 79.7399 8.82999 104.45C8.82999 105.05 8.83 105.66 8.91 106.25C9.18 108.26 10.55 109.62 12.56 109.89C13.1 109.96 13.65 109.94 14.2 109.94C60.93 109.94 107.65 109.94 154.38 109.94C154.65 109.94 154.93 109.95 155.2 109.94C158.06 109.87 159.67 108.32 159.75 105.44C159.81 103.09 159.77 100.73 159.77 98.3699C159.77 75.7999 159.77 53.2299 159.77 30.6599C159.77 29.8899 159.77 29.1199 159.66 28.3699C159.36 26.2999 157.86 24.9399 155.76 24.8499C154.47 24.7999 153.18 24.8399 151.77 24.8399C154.19 21.2399 158.26 19.7999 161.89 21.2899C162.57 21.5699 163.03 22.4999 163.45 23.2099C163.64 23.5399 163.51 24.0699 163.51 24.4999C163.51 53.6299 163.51 82.7699 163.51 111.92ZM23.95 41.6999C23.86 40.1599 24.48 39.7199 25.95 39.7299C33.07 39.7799 40.19 39.7499 47.31 39.7499C53.5 39.7499 59.69 39.7899 65.87 39.7199C67.45 39.6999 68 40.1899 67.92 41.7899C67.8 44.2399 67.89 46.6899 67.89 49.3199C67.19 49.3199 66.65 49.3199 66.12 49.3199C52.7 49.3199 39.29 49.2999 25.87 49.3499C24.36 49.3599 23.85 48.9599 23.95 47.4299C24.07 45.5399 24.05 43.6099 23.95 41.6999ZM24.08 54.3699C38.68 54.3699 53.17 54.3699 67.77 54.3699C67.77 67.3899 67.77 80.3999 67.77 93.5399C53.24 93.5399 38.71 93.5399 24.08 93.5399C24.08 80.3899 24.08 67.4299 24.08 54.3699ZM60.18 98.9499C60.36 98.6599 61.06 98.6099 61.52 98.6099C63.77 98.5799 66.01 98.6199 68.26 98.5899C71.27 98.5399 72.79 96.9999 72.82 94.0099C72.84 92.5399 72.82 91.0699 72.82 89.3599C76.69 90.5899 78.53 88.4299 80.03 85.4999C81.01 83.5699 82.19 81.7399 83.49 79.4799C84.21 80.6199 84.73 81.4099 85.22 82.2199C85.67 82.9699 86.08 83.7499 86.54 84.4899C88.56 87.7299 92.5 87.7999 94.64 84.6399C94.85 84.3299 95.06 84.0299 95.36 83.5999C99.46 90.6999 103.5 97.6899 107.68 104.94C90.54 104.94 73.79 104.94 56.67 104.94C57.89 102.83 58.98 100.86 60.18 98.9499ZM74.07 74.6499C76.63 70.6499 78.87 66.4499 81.25 62.3399C81.52 61.8799 81.8 61.4299 82.18 60.8099C84.32 64.5099 86.37 68.0499 88.42 71.5899C89.4 73.2899 90.29 75.0599 91.4 76.6799C92.33 78.0299 92.5 79.1899 91.39 80.4599C91.14 80.7399 90.99 81.1099 90.62 81.7199C89.83 80.3499 89.17 79.1699 88.48 78.0099C86.01 73.9199 81.11 73.8999 78.67 77.9899C77.42 80.0799 76.22 82.1999 74.97 84.3399C72.41 81.6199 72.1 77.7199 74.07 74.6499Z" fill="#3BDED7"/>
<path d="M78.63 121.63C76.92 121.66 75.95 122.64 75.95 124.09C75.95 125.55 76.93 126.47 78.64 126.52C80.5 126.57 82.35 126.53 84.21 126.53C86.07 126.53 87.92 126.56 89.78 126.52C91.62 126.48 92.63 125.58 92.62 124.07C92.61 122.62 91.64 121.65 89.92 121.63C86.16 121.58 82.39 121.58 78.63 121.63Z" fill="#3BDED7"/>
<path d="M29.43 69.1599C30.13 69.2699 30.85 69.2399 31.56 69.1999C32.38 69.1499 32.89 69.3599 33.38 70.1599C36.22 74.8399 42.3 74.7799 45.32 70.1599C45.63 69.6899 46.38 69.2699 46.95 69.2499C49.41 69.1499 51.88 69.2099 54.34 69.2099C56.75 69.2099 59.16 69.2399 61.57 69.1899C62.2 69.1799 63.12 69.1499 63.4 68.7599C63.96 67.9999 64.51 66.9499 64.42 66.0899C64.3 64.8199 63.16 64.2799 61.86 64.2799C57.04 64.2899 52.22 64.2599 47.4 64.2999C46.34 64.3099 45.68 64.0999 45.05 63.0699C42.77 59.3399 37.49 58.5999 34.62 61.8599C33.09 63.5999 31.74 64.5699 29.39 64.3799C28.15 64.2799 27.33 65.3499 27.3 66.6799C27.29 68.0799 28.06 68.9399 29.43 69.1599ZM39.24 64.8399C40.47 64.8099 41.12 65.5199 41.26 66.6999C41.16 67.9399 40.5 68.6599 39.29 68.6499C38.07 68.6399 37.34 67.8799 37.37 66.6799C37.39 65.5799 38.08 64.8599 39.24 64.8399Z" fill="#3BDED7"/>
<path d="M62.34 78.4399C61.64 78.3499 60.89 78.5399 60.22 78.3699C59.58 78.2099 58.78 77.9099 58.45 77.4099C55.46 72.8099 49.42 72.8299 46.45 77.4599C46.15 77.9299 45.39 78.3399 44.83 78.3699C42.42 78.4699 40.01 78.4099 37.6 78.4099C35.19 78.4099 32.78 78.3999 30.37 78.4099C28.42 78.4199 27.32 79.2899 27.3 80.8199C27.27 82.4199 28.39 83.3299 30.44 83.3299C35.15 83.3399 39.86 83.3599 44.57 83.3099C45.56 83.2999 46.09 83.5799 46.63 84.4499C48.96 88.2499 54.32 89.0599 57.17 85.7399C58.71 83.9499 60.11 83.0999 62.43 83.2499C63.76 83.3299 64.6 82.2499 64.58 80.8399C64.55 79.4199 63.7 78.6299 62.34 78.4399ZM52.51 82.8199C51.27 82.7199 50.51 82.0599 50.52 80.8699C50.53 79.6899 51.28 78.9499 52.51 78.9799C53.65 79.0099 54.34 79.6699 54.38 80.8199C54.41 82.0599 53.67 82.6699 52.51 82.8199Z" fill="#3BDED7"/>
<path d="M49.07 46.5099C50.45 46.5099 51.52 45.3699 51.48 43.9699C51.44 42.6399 50.36 41.5999 49.05 41.6099C47.76 41.6199 46.65 42.6999 46.61 43.9899C46.56 45.3399 47.7 46.5099 49.07 46.5099Z" fill="#3BDED7"/>
<path d="M55.78 46.5097C57.08 46.5497 58.21 45.5197 58.3 44.2097C58.39 42.8497 57.29 41.6497 55.92 41.5997C54.56 41.5597 53.39 42.6997 53.4 44.0597C53.4 45.3697 54.48 46.4697 55.78 46.5097Z" fill="#3BDED7"/>
<path d="M62.59 46.51C63.95 46.54 65.12 45.39 65.11 44.04C65.1 42.76 64 41.64 62.71 41.61C61.41 41.57 60.3 42.61 60.23 43.92C60.16 45.33 61.21 46.48 62.59 46.51Z" fill="#3BDED7"/>
</svg>
