<svg width="159" height="151" viewBox="0 0 159 151" fill="none" xmlns="http://www.w3.org/2000/svg">
<path d="M7.85 12.9802H14.31V19.4402C14.31 20.6102 15.26 21.5602 16.43 21.5602C17.6 21.5602 18.55 20.6102 18.55 19.4402V12.9802H25.01C26.18 12.9802 27.13 12.0302 27.13 10.8602C27.13 9.69016 26.18 8.74016 25.01 8.74016H18.55V2.28016C18.55 1.11016 17.6 0.160156 16.43 0.160156C15.26 0.160156 14.31 1.11016 14.31 2.28016V8.74016H7.85C6.68 8.74016 5.73 9.69016 5.73 10.8602C5.73 12.0302 6.67 12.9802 7.85 12.9802Z" fill="#3BDED7"/>
<path d="M150.95 109.03H144.49V102.57C144.49 101.4 143.54 100.45 142.37 100.45C141.2 100.45 140.25 101.4 140.25 102.57V109.03H133.79C132.62 109.03 131.67 109.98 131.67 111.15C131.67 112.32 132.62 113.27 133.79 113.27H140.25V119.73C140.25 120.9 141.2 121.85 142.37 121.85C143.54 121.85 144.49 120.9 144.49 119.73V113.27H150.95C152.12 113.27 153.07 112.32 153.07 111.15C153.07 109.98 152.12 109.03 150.95 109.03Z" fill="#3BDED7"/>
<path d="M156.67 14.4599H144.48V2.2699C144.48 1.0999 143.53 0.149902 142.36 0.149902C141.19 0.149902 140.24 1.0999 140.24 2.2699V14.4599H128.05C126.88 14.4599 125.93 15.4099 125.93 16.5799C125.93 17.7499 126.88 18.6999 128.05 18.6999H140.24V30.8899C140.24 32.0599 141.19 33.0099 142.36 33.0099C143.53 33.0099 144.48 32.0599 144.48 30.8899V18.6999H156.67C157.84 18.6999 158.79 17.7499 158.79 16.5799C158.79 15.4099 157.84 14.4599 156.67 14.4599Z" fill="#3BDED7"/>
<path d="M30.74 114.75H18.55V102.56C18.55 101.39 17.6 100.44 16.43 100.44C15.26 100.44 14.31 101.39 14.31 102.56V114.75H2.12C0.95 114.75 0 115.7 0 116.87C0 118.04 0.95 119 2.12 119H14.31V131.19C14.31 132.36 15.26 133.31 16.43 133.31C17.6 133.31 18.55 132.36 18.55 131.19V119H30.74C31.91 119 32.86 118.05 32.86 116.88C32.86 115.71 31.91 114.75 30.74 114.75Z" fill="#3BDED7"/>
<path d="M125.51 36.9601C124.05 28.3301 114.55 14.8801 111.16 12.5701L110.17 11.5701C101.9 4.41014 91.13 0.140137 79.42 0.140137C53.39 0.140137 32.24 21.2901 32.24 47.3201C32.24 55.8701 34.52 63.9201 38.51 70.8501C43.17 78.8401 52.61 93.1601 59.99 104.1V111.48H57.21C55.66 111.48 54.43 112.7 54.43 114.26C54.43 115.81 55.65 117.04 57.21 117.04H59.99V122.59H57.21C55.66 122.59 54.43 123.81 54.43 125.37C54.43 126.92 55.65 128.15 57.21 128.15H59.99V133.42C59.99 142.02 72.7 150.35 79.42 150.35C86.14 150.35 98.84 142 98.84 133.4V128.13H101.62C103.17 128.13 104.4 126.91 104.4 125.35C104.4 123.8 103.18 122.57 101.62 122.57H98.84V117.02H101.62C103.17 117.02 104.4 115.8 104.4 114.24C104.4 112.69 103.18 111.46 101.62 111.46H98.84V104.08C106.22 93.1501 115.66 78.8301 120.32 70.8301C124.32 63.8901 126.59 55.8401 126.59 47.3001C126.59 44.5801 126.37 41.9201 125.92 39.3101L125.51 36.9601ZM93.29 133.4C93.29 137.34 89.07 141.12 84.96 143.17C82.96 144.17 80.96 144.78 79.41 144.78C74.8 144.78 65.53 139.23 65.53 133.4V128.13H93.28V133.4H93.29ZM93.29 122.58H65.54V117.03H93.29V122.58ZM93.29 111.48H65.54C65.54 108.21 65.54 105.93 65.54 105.93H93.29C93.29 105.93 93.29 108.2 93.29 111.48ZM115.5 68.3501C110.95 76.2301 101.01 90.7701 94.35 100.38H87.75V61.0201C88.64 61.3001 89.53 61.5201 90.53 61.5201C95.14 61.5201 98.86 57.8001 98.86 53.1901C98.86 48.5801 95.14 44.8601 90.53 44.8601C85.92 44.8601 82.2 48.5801 82.2 53.1901V100.37H76.65V53.2001C76.65 48.5901 72.93 44.8701 68.32 44.8701C63.71 44.8701 59.99 48.5901 59.99 53.2001C59.99 57.8101 63.71 61.5301 68.32 61.5301C69.32 61.5301 70.21 61.3101 71.1 61.0301V100.38H64.5C57.84 90.7801 47.9 76.2401 43.35 68.3501C39.8 62.2401 37.8 55.1401 37.8 47.5401C37.8 24.5601 56.45 5.91014 79.43 5.91014C86.72 5.91014 93.54 7.80014 99.47 11.1301C99.73 11.2801 99.99 11.4201 100.24 11.5701L101.25 12.2301C104.89 15.0501 115.1 22.6501 119.89 38.1101L120.22 39.3201C120.78 41.9801 121.05 44.7001 121.05 47.5301C121.05 55.1401 119.05 62.2501 115.5 68.3501ZM87.8 53.1401C87.8 51.6401 89.02 50.3601 90.52 50.3601C92.02 50.3601 93.24 51.6401 93.24 53.1401C93.24 54.6901 92.01 55.9201 90.52 55.9201C89.03 55.9201 87.8 54.7001 87.8 53.1401ZM71.04 53.2001C71.04 54.7001 69.82 55.9801 68.32 55.9801C66.82 55.9801 65.6 54.7001 65.6 53.2001C65.6 51.6501 66.82 50.4201 68.32 50.4201C69.82 50.4201 71.04 51.6401 71.04 53.2001Z" fill="#3BDED7"/>
</svg>
