<svg width="164" height="180" viewBox="0 0 164 180" fill="none" xmlns="http://www.w3.org/2000/svg">
<path d="M157.37 29.78C149.61 29.77 141.85 29.78 134.09 29.78C133.47 29.78 132.85 29.78 132.08 29.78C132.08 28.93 132.08 28.3 132.08 27.67C132.08 20.84 131.96 14.01 132.13 7.19C132.22 3.73 131.03 1.34 127.84 0C109.4 0 90.96 0 72.52 0C69.26 1.53 68.22 4.13 68.31 7.64C68.49 14.34 68.36 21.06 68.36 27.77C68.36 28.39 68.36 29.01 68.36 29.78C67.52 29.78 66.89 29.78 66.27 29.78C58.51 29.78 50.75 29.77 42.99 29.78C39.26 29.79 37.41 31.61 37.4 35.38C37.38 44.42 37.38 53.47 37.4 62.51C37.41 66.2 39.2 67.99 42.87 68.02C46.2 68.05 49.52 67.96 52.85 68.07C53.9 68.1 55.05 68.39 55.96 68.89C60.65 71.5 65.27 74.22 69.92 76.89C72.94 78.62 74.94 77.47 74.95 74.01C74.96 72.06 74.95 70.1 74.95 67.98C76.62 67.98 78.02 68.06 79.4 67.96C81.88 67.79 83.58 66.04 83.78 63.56C83.85 62.63 83.83 61.69 83.83 60.76C83.84 57.92 83.83 55.07 83.83 52.07C85.79 52.07 87.54 52.13 89.28 52.05C90.36 52 90.96 52.38 91.48 53.32C93.43 56.84 95.45 60.31 97.48 63.79C99.11 66.58 101.44 66.57 103.08 63.76C105.11 60.29 107.09 56.79 109.13 53.32C109.42 52.83 109.96 52.17 110.42 52.14C112.44 52.01 114.47 52.08 116.67 52.08C116.67 55.75 116.64 59.24 116.68 62.72C116.72 66.04 118.59 67.92 121.88 68.02C123.08 68.05 124.29 68.03 125.66 68.03C125.66 70.15 125.65 72 125.66 73.86C125.68 77.51 127.56 78.63 130.69 76.84C135.39 74.14 140.07 71.4 144.79 68.74C145.56 68.31 146.53 68.06 147.41 68.04C150.73 67.96 154.06 68.02 157.39 68C161.34 67.98 163.14 66.16 163.14 62.19C163.15 53.32 163.15 44.45 163.14 35.59C163.14 31.63 161.3 29.79 157.37 29.78ZM78.03 62.4C76.24 62.4 74.5 62.38 72.77 62.4C70.35 62.43 69.37 63.41 69.35 65.8C69.34 67.08 69.35 68.36 69.35 69.95C68.69 69.61 68.2 69.38 67.74 69.12C64.36 67.18 61.01 65.17 57.58 63.32C56.6 62.79 55.4 62.47 54.29 62.44C50.63 62.33 46.96 62.4 43.17 62.4C43.17 53.39 43.17 44.51 43.17 35.5C54.75 35.5 66.32 35.5 78.05 35.5C78.03 44.35 78.03 53.22 78.03 62.4ZM121.87 29.79C118.62 29.85 116.68 31.79 116.65 35.07C116.62 38.79 116.64 42.51 116.64 46.45C114.06 46.45 111.62 46.52 109.19 46.43C107.33 46.36 106.15 47.06 105.26 48.71C103.72 51.56 102.02 54.33 100.23 57.39C98.53 54.46 96.87 51.81 95.42 49.04C94.43 47.15 93.13 46.3 90.97 46.43C88.66 46.57 86.33 46.46 83.77 46.46C83.77 44.08 83.77 41.89 83.77 39.7C83.77 38.01 83.81 36.32 83.75 34.63C83.65 31.76 81.73 29.87 78.85 29.79C77.29 29.75 75.72 29.78 74.05 29.78C74.05 21.74 74.05 13.83 74.05 5.78C91.41 5.78 108.8 5.78 126.32 5.78C126.32 13.68 126.32 21.62 126.32 29.81C124.77 29.78 123.32 29.76 121.87 29.79ZM157.39 62.4C153.66 62.4 149.99 62.33 146.33 62.44C145.16 62.48 143.9 62.81 142.87 63.36C139.53 65.15 136.29 67.1 133 68.99C132.51 69.27 132 69.52 131.2 69.94C131.2 68.37 131.23 67.06 131.19 65.75C131.12 63.45 130.13 62.46 127.85 62.41C126.16 62.37 124.47 62.38 122.78 62.35C122.68 62.35 122.57 62.27 122.36 62.17C122.36 53.37 122.36 44.53 122.36 35.54C133.96 35.54 145.59 35.54 157.37 35.54C157.39 44.34 157.39 53.22 157.39 62.4Z" fill="#3BDED7"/>
<path d="M94.68 68.13C89.24 67.35 84.02 70.79 82.24 76.18C81.99 76.94 81.28 77.77 80.57 78.12C68.98 83.86 57.36 89.54 45.72 95.18C44.72 95.66 43.51 95.92 42.39 95.93C34.28 95.99 26.17 95.94 18.06 95.97C13.71 95.99 10.21 98.44 8.93999 102.3C8.65999 103.16 8.51002 104.07 8.28002 105.02C7.63002 105.02 7.04996 105.01 6.46996 105.02C2.87996 105.1 0.179963 107.56 0.0999626 111.12C-0.0100374 115.96 -0.0200374 120.8 0.0999626 125.64C0.179963 129.14 2.77999 131.54 6.31999 131.69C6.98999 131.72 7.66997 131.69 8.35997 131.69C8.77997 135.27 10.26 137.96 13.27 139.56C14.26 140.08 14.56 140.65 14.57 141.71C14.58 143.92 14.25 146.29 14.93 148.3C18 157.28 21.34 166.17 24.65 175.06C25.7 177.89 27.82 179.22 30.87 179.22C35.48 179.23 40.11 178.94 44.69 179.3C49.27 179.66 53.46 175.14 51.08 169.77C49.03 165.14 47.29 160.37 45.41 155.67C45.21 155.17 45.02 154.66 44.81 154.09C53.38 153.47 53.38 153.47 54.68 145.98C54.98 146.07 55.15 146.1 55.3 146.17C63.83 150.33 72.38 154.48 80.88 158.71C81.49 159.01 82.02 159.83 82.25 160.52C84 165.91 89.31 169.41 94.67 168.61C100.49 167.74 104.7 163.15 104.71 157.38C104.75 131.36 104.75 105.35 104.71 79.33C104.71 73.53 100.51 68.97 94.68 68.13ZM8.36998 125.81C5.81998 126.34 5.68999 126.24 5.68999 123.69C5.68999 120.09 5.68999 116.49 5.68999 112.89C5.68999 110.46 5.73998 110.42 8.36998 110.75C8.36998 115.76 8.36998 120.79 8.36998 125.81ZM14.09 130.56C14.08 122.28 14.08 114 14.09 105.72C14.09 103.16 15.4 101.6 17.81 101.59C25.68 101.54 33.56 101.58 41.43 101.59C41.54 101.59 41.65 101.66 41.94 101.76C41.94 112.82 41.94 123.83 41.94 135C41.33 135.03 40.77 135.09 40.21 135.09C33.04 135.1 25.86 135.1 18.69 135.09C15.43 135.09 14.09 133.78 14.09 130.56ZM45.77 171.53C46.51 173.38 46.34 173.62 44.32 173.62C40.12 173.63 35.92 173.58 31.72 173.65C30.56 173.67 29.94 173.36 29.53 172.22C26.55 163.95 23.41 155.73 20.57 147.42C19.89 145.41 20.13 143.09 19.94 140.75C24.9 140.75 29.37 140.75 33.54 140.75C35.18 144.9 36.74 148.9 38.32 152.88C40.8 159.1 43.3 165.31 45.77 171.53ZM48.92 148.18C48.49 148.31 48.43 148.34 48.37 148.34C46.45 148.32 44.12 148.95 42.73 148.09C41.44 147.28 41.13 144.88 40.41 143.17C40.12 142.48 39.88 141.77 39.58 140.96C43.01 139.99 45.85 141.27 48.59 142.93C48.81 143.06 48.89 143.54 48.89 143.87C48.94 145.31 48.92 146.76 48.92 148.18ZM81.66 152.76C77.38 150.67 73.31 148.69 69.24 146.71C62.49 143.42 55.75 140.1 48.97 136.85C47.93 136.35 47.57 135.76 47.58 134.6C47.63 123.75 47.61 112.91 47.6 102.06C47.6 101.15 47.66 100.48 48.68 99.98C59.43 94.78 70.14 89.52 80.87 84.28C81.07 84.18 81.29 84.14 81.65 84.01C81.66 106.89 81.66 129.66 81.66 152.76ZM99.14 118.5C99.14 131.27 99.15 144.03 99.13 156.8C99.12 161.17 95.5 164.02 91.55 162.78C89.23 162.05 87.84 160.44 87.49 158.01C87.4 157.38 87.39 156.73 87.39 156.09C87.39 130.91 87.38 105.73 87.39 80.54C87.39 76.96 88.72 74.77 91.38 73.89C95.16 72.63 99.04 75.3 99.11 79.32C99.19 84.22 99.14 89.11 99.14 94.01C99.14 102.17 99.14 110.34 99.14 118.5Z" fill="#3BDED7"/>
<path d="M104.46 9.89004C101.29 10.66 98.36 11.58 95.22 10.17C94.87 10.01 94.41 10.11 94 10.1C84.83 9.98004 78.96 19.43 83.24 27.55C84.21 29.39 85.4 31.2 86.84 32.68C90.46 36.39 94.25 39.94 98.03 43.49C99.34 44.72 100.81 44.6 102.25 43.3C104.67 41.11 107.2 39.01 109.42 36.63C112.07 33.79 114.71 30.86 116.89 27.66C119.71 23.5 119.52 19.01 116.62 14.89C113.68 10.67 109.45 8.68004 104.46 9.89004ZM112.07 24.86C111.2 26.3 110.2 27.69 109.04 28.9C106.15 31.92 103.13 34.82 99.9 38.03C96.35 34.32 92.91 30.87 89.63 27.26C88.23 25.71 87.11 23.84 87.36 21.58C87.9 16.65 93.28 14.13 97.48 16.8C99.94 18.36 100.26 18.35 102.55 16.6C105.11 14.65 108.56 14.75 110.91 16.84C113.35 18.99 113.84 21.94 112.07 24.86Z" fill="#3BDED7"/>
<path d="M131.66 51.1298C133.22 51.1698 134.47 49.9998 134.5 48.4498C134.54 46.9198 133.33 45.6198 131.82 45.5698C130.35 45.5298 129 46.8098 128.94 48.2998C128.9 49.8098 130.13 51.0998 131.66 51.1298Z" fill="#3BDED7"/>
<path d="M147.94 51.1401C149.48 51.1801 150.77 49.9801 150.83 48.4601C150.88 46.9901 149.6 45.6301 148.11 45.5801C146.6 45.5301 145.32 46.7501 145.28 48.3001C145.24 49.8801 146.38 51.1001 147.94 51.1401Z" fill="#3BDED7"/>
<path d="M139.83 51.1398C141.39 51.1598 142.61 49.9798 142.62 48.4198C142.64 46.8798 141.42 45.5998 139.91 45.5798C138.43 45.5598 137.12 46.8498 137.09 48.3498C137.06 49.8698 138.28 51.1198 139.83 51.1398Z" fill="#3BDED7"/>
<path d="M51.18 56.1301C51.23 58.7901 53.3 60.0801 55.59 58.8001C59.91 56.3901 64.19 53.9201 68.43 51.3801C70.59 50.0901 70.52 47.6201 68.33 46.3301C64.17 43.8801 59.99 41.4701 55.79 39.1001C53.29 37.6901 51.23 38.9201 51.18 41.8101C51.14 44.2001 51.17 46.5801 51.17 48.9701C51.17 51.3501 51.14 53.7401 51.18 56.1301ZM56.89 46.1801C58.44 47.0701 59.89 47.9001 61.58 48.8801C59.92 49.8401 58.5 50.6601 56.89 51.5901C56.89 49.7201 56.89 48.0901 56.89 46.1801Z" fill="#3BDED7"/>
</svg>
