<svg width="165" height="165" viewBox="0 0 165 165" fill="none" xmlns="http://www.w3.org/2000/svg">
<path d="M120.84 100.456C123.682 101.834 126.196 101.014 128.523 99.1124C131.786 96.4524 135.071 93.8145 138.401 91.2343C138.955 90.8042 139.775 90.5205 140.48 90.5116C145.743 90.454 151.009 90.485 156.276 90.4762C161.685 90.4673 164.952 87.1911 164.957 81.7602C164.966 71.6698 164.961 61.5839 164.957 51.4936C164.952 45.7524 161.756 42.5781 155.975 42.5781C141.899 42.5736 127.823 42.5781 113.742 42.5781C113.104 42.5781 112.466 42.5781 111.743 42.5781C111.743 41.7357 111.743 41.1328 111.743 40.5254C111.743 31.7651 111.747 23.0092 111.743 14.2488C111.739 5.58604 106.157 0 97.5075 0C69.7413 0 41.9751 0 14.2089 0.00443337C5.57718 0.00443337 0.00443337 5.60378 0 14.2799C0 59.7352 0 105.191 0 150.65C0 159.424 5.55501 164.997 14.3065 164.997C42.0195 165.001 69.728 165.001 97.441 164.997C106.192 164.997 111.743 159.424 111.743 150.641C111.747 131.241 111.743 111.836 111.743 92.4357C111.743 91.8018 111.743 91.1678 111.743 90.5249C113.618 90.5249 115.219 90.5249 117.063 90.5249C117.063 91.6688 117.094 92.6574 117.059 93.6416C116.943 96.6829 118.025 99.0902 120.84 100.456ZM69.2359 5.39984C69.7945 5.37324 70.3265 5.32448 70.8541 5.32448C79.8272 5.32004 88.8004 5.31561 97.7691 5.32448C103.089 5.32891 106.401 8.61403 106.423 13.8897C106.432 16.2705 106.423 18.6467 106.423 21.2137C93.0919 21.2137 79.9469 21.2137 66.4739 21.2137C70.2778 16.368 68.8768 10.8174 69.2359 5.39984ZM87.8029 47.8538C87.8029 59.2342 87.7984 70.4551 87.8029 81.6759C87.8073 87.2176 91.0481 90.4717 96.5588 90.4806C99.7685 90.485 102.978 90.4806 106.303 90.4806C106.303 102.89 106.303 115.214 106.303 127.637C99.3385 127.637 92.3737 127.637 85.1384 127.637C85.1384 126.666 85.1207 125.646 85.1428 124.622C85.2182 121.23 84.4823 118.043 82.9528 115.006C82.6247 114.354 82.5183 113.53 82.5138 112.785C82.4784 101.865 82.5005 90.9417 82.4695 80.0223C82.4296 67.0902 73.7446 56.4412 61.0918 53.7546C45.1494 50.3675 29.4863 62.8075 29.2957 79.1401C29.1671 90.2811 29.2824 101.427 29.2336 112.568C29.2292 113.516 28.9721 114.532 28.5775 115.396C27.3361 118.109 26.6002 120.911 26.6046 123.899C26.6046 125.11 26.6046 126.32 26.6046 127.663C19.4093 127.663 12.4489 127.663 5.40428 127.663C5.40428 94.014 5.40428 60.4401 5.40428 26.7421C38.9959 26.7421 72.6008 26.7421 106.317 26.7421C106.317 31.9513 106.317 37.1827 106.317 42.5337C86.8984 42.5337 67.5202 42.5337 48.0178 42.5337C48.0178 44.3337 48.0178 46.0139 48.0178 47.8582C61.3312 47.8538 74.6624 47.8538 87.8029 47.8538ZM54.8541 98.4296C49.5252 97.9065 45.38 93.4554 45.2425 88.0822C45.1982 86.3664 45.1494 84.6463 45.278 82.9395C45.3179 82.3897 45.779 81.6626 46.2622 81.3833C49.4498 79.5302 52.695 77.779 55.8604 76.0278C59.1012 77.7967 62.4839 79.6322 65.8444 81.503C66.1281 81.6626 66.4828 82.0439 66.4784 82.3143C66.4385 84.9079 66.6335 87.5546 66.1769 90.0816C65.2237 95.3795 60.1652 98.9528 54.8541 98.4296ZM58.9638 110.59C57.4033 111.965 55.1777 112.151 53.4044 111.06C51.2231 109.713 50.4783 106.951 51.3916 103.528C54.3043 103.528 57.2259 103.528 60.2317 103.528C61.3312 106.033 60.8524 108.928 58.9638 110.59ZM66.0395 100.052C70.0118 96.7051 71.9092 92.387 71.8427 87.1911C71.8117 84.531 71.7851 81.8666 71.8649 79.2066C71.8959 78.1824 71.5324 77.7613 70.5881 77.4864C66.6646 76.3337 63.1179 74.4629 59.917 71.8915C58.9372 71.1024 58.3963 70.3044 58.5027 68.9743C58.6313 67.334 58.5338 65.6803 58.5338 63.9513C56.7382 63.9513 55.0935 63.9513 53.2137 63.9513C53.2137 65.7468 53.3157 67.5601 53.165 69.3556C53.1029 70.1226 52.695 71.0492 52.132 71.5546C48.6473 74.6845 44.4755 76.5776 39.989 77.8721C39.989 81.8222 39.7762 85.7103 40.0466 89.5629C40.3437 93.7657 42.3697 97.2637 45.6105 99.9858C46.2799 100.549 46.6789 101.028 46.2799 101.923C45.8455 102.898 46.1868 104.158 44.5642 104.592C41.2348 105.483 37.9807 106.676 34.6468 107.757C34.6423 107.713 34.5936 107.305 34.5936 106.893C34.5891 97.9109 34.567 88.9289 34.598 79.9469C34.6335 68.8768 42.68 59.9524 53.7457 58.6357C64.1819 57.3988 74.2013 64.6385 76.6219 75.2298C76.9411 76.6219 77.1229 78.0805 77.1317 79.508C77.1849 88.7117 77.1672 97.9154 77.1716 107.119C77.1716 107.443 77.1362 107.762 77.1362 107.753C73.7313 106.645 70.4773 105.457 67.1434 104.565C65.5872 104.149 65.8932 102.969 65.4986 102.038C65.1616 101.227 65.2991 100.673 66.0395 100.052ZM46.0804 109.757C47.9336 114.545 51.334 117.302 56.6673 117.05C60.6884 116.859 63.5302 114.478 65.6271 109.801C74.3298 110.856 80.838 116.052 79.7519 127.61C63.8981 127.61 48.0267 127.61 32.1552 127.61C30.8474 119.564 34.3409 111.344 46.0804 109.757ZM47.8981 5.42201C53.2049 5.42201 58.3919 5.42201 63.7873 5.42201C63.7873 8.4633 64.0223 11.4647 63.7297 14.4129C63.3174 18.5847 59.4736 21.5417 55.3151 21.2669C51.2586 20.9964 48.0001 17.6093 47.907 13.4686C47.8493 10.8263 47.8981 8.17513 47.8981 5.42201ZM5.37768 12.5996C5.59048 8.79137 8.80467 5.67471 12.6085 5.35108C13.0474 5.31561 13.4952 5.32448 13.9385 5.32448C23.4038 5.32448 32.869 5.32448 42.4761 5.32448C42.9505 10.6844 41.421 16.3192 45.2647 21.2004C31.8183 21.2004 18.6733 21.2004 5.34664 21.2004C5.34664 18.2389 5.22251 15.4104 5.37768 12.5996ZM106.419 151.253C106.401 156.316 103.031 159.672 97.942 159.672C69.8965 159.681 41.8466 159.681 13.8011 159.672C8.70713 159.672 5.33778 156.316 5.32448 151.253C5.30674 145.273 5.32004 139.288 5.32004 133.125C39.089 133.125 72.654 133.125 106.33 133.125C106.365 133.604 106.423 134.03 106.423 134.451C106.427 140.055 106.441 145.654 106.419 151.253ZM96.4302 85.1561C94.1204 85.1517 93.1318 84.2118 93.1273 81.9818C93.114 71.6743 93.114 61.3623 93.1273 51.0547C93.1318 48.8912 94.116 47.9114 96.2928 47.9114C116.354 47.9025 136.41 47.9025 156.471 47.9114C158.644 47.9114 159.628 48.8912 159.628 51.0635C159.641 61.3711 159.641 71.6831 159.628 81.9907C159.623 84.2163 158.63 85.1561 156.316 85.1606C150.5 85.1739 144.679 85.1295 138.862 85.2049C138.011 85.2138 137.013 85.564 136.339 86.0827C132.567 88.991 128.887 92.019 125.132 94.9539C124.626 95.3484 123.651 95.7874 123.296 95.5657C122.795 95.2553 122.45 94.3465 122.427 93.6815C122.334 90.9195 122.388 88.1531 122.388 85.165C121.572 85.165 120.969 85.165 120.366 85.165C112.39 85.1606 104.41 85.1694 96.4302 85.1561Z" fill="#3BDED7"/>
<path d="M164.948 114.474C164.886 109.916 161.481 106.485 156.923 106.467C146.345 106.427 135.767 106.432 125.189 106.463C120.534 106.476 117.134 109.908 117.081 114.558C117.045 117.662 117.072 120.765 117.072 123.864C117.072 129.419 119.422 132.207 125.052 133.187C125.052 134.468 125.065 135.626 125.048 136.787C125.008 139.735 126.24 141.93 128.953 143.158C131.516 144.319 134.105 143.712 136.366 141.473C138.889 138.982 141.349 136.428 143.92 133.99C144.448 133.489 145.326 133.121 146.053 133.103C149.706 133.014 153.364 133.103 157.017 133.05C161.468 132.983 164.877 129.565 164.948 125.11C165.001 121.563 164.992 118.016 164.948 114.474ZM159.632 124.626C159.615 126.768 158.626 127.725 156.427 127.734C152.384 127.752 148.336 127.792 144.293 127.708C143.012 127.681 142.143 128.093 141.274 128.998C138.543 131.831 135.75 134.601 132.926 137.341C132.473 137.78 131.746 137.944 131.143 138.232C130.886 137.563 130.43 136.902 130.412 136.224C130.328 133.467 130.376 130.7 130.376 127.734C128.594 127.734 127.051 127.752 125.504 127.73C123.421 127.699 122.423 126.737 122.405 124.688C122.374 121.417 122.379 118.149 122.405 114.877C122.423 112.794 123.394 111.783 125.442 111.778C135.807 111.761 146.168 111.761 156.533 111.778C158.617 111.783 159.619 112.767 159.637 114.815C159.659 118.087 159.659 121.359 159.632 124.626Z" fill="#3BDED7"/>
<path d="M10.7598 53.0939C21.422 53.0939 31.9646 53.0939 42.4805 53.0939C42.4805 46.0005 42.4805 39.0401 42.4805 32.0088C31.8892 32.0088 21.3821 32.0088 10.7598 32.0088C10.7598 39.1376 10.7598 46.1379 10.7598 53.0939ZM16.0443 37.382C23.0402 37.382 30.0316 37.382 37.1383 37.382C37.1383 40.8135 37.1383 44.2671 37.1383 47.8137C30.1158 47.8137 23.12 47.8137 16.0443 47.8137C16.0443 44.3291 16.0443 40.9154 16.0443 37.382Z" fill="#3BDED7"/>
<path d="M101.032 32.0532C83.2498 32.0532 65.6139 32.0532 47.9735 32.0532C47.9735 33.8133 47.9735 35.4536 47.9735 37.1693C65.6892 37.1693 83.3252 37.1693 101.032 37.1693C101.032 35.4403 101.032 33.8 101.032 32.0532Z" fill="#3BDED7"/>
<path d="M63.8805 138.401C58.5604 138.348 53.2404 138.352 47.9248 138.401C44.8392 138.428 42.6446 140.693 42.5826 143.805C42.5471 145.468 42.556 147.13 42.5781 148.793C42.6269 152.1 44.8126 154.308 48.1199 154.348C50.7222 154.379 53.3291 154.352 55.9314 154.352C58.5338 154.352 61.1407 154.383 63.743 154.343C66.8597 154.295 69.0897 152.1 69.1695 149.015C69.2138 147.241 69.2183 145.468 69.1695 143.694C69.0808 140.68 66.8819 138.432 63.8805 138.401ZM63.7253 148.917C58.5427 148.917 53.3202 148.917 47.9691 148.917C47.9691 147.157 47.9691 145.517 47.9691 143.792C53.2271 143.792 58.4097 143.792 63.7253 143.792C63.7253 145.441 63.7253 147.121 63.7253 148.917Z" fill="#3BDED7"/>
<path d="M31.9246 143.951C31.867 140.635 29.6902 138.441 26.3874 138.392C24.6717 138.365 22.9515 138.348 21.2358 138.396C18.3053 138.481 16.0842 140.649 15.9822 143.548C15.9157 145.428 15.9157 147.316 15.9822 149.201C16.0798 152.016 18.2699 154.197 21.0851 154.339C22.0781 154.388 23.0845 154.286 24.0731 154.365C29.8676 154.826 32.4212 152.441 31.9246 146.443C31.9291 145.61 31.9379 144.78 31.9246 143.951ZM26.4805 148.966C24.7603 148.966 23.12 148.966 21.3865 148.966C21.3865 147.228 21.3865 145.552 21.3865 143.792C23.0756 143.792 24.716 143.792 26.4805 143.792C26.4805 145.445 26.4805 147.121 26.4805 148.966Z" fill="#3BDED7"/>
<path d="M87.8516 138.277C81.7602 138.277 79.712 140.254 79.7075 146.439C79.7031 152.477 81.9153 154.835 87.661 154.352C94.0184 154.858 95.8672 152.277 95.8849 146.377C95.9071 140.312 93.8101 138.281 87.8516 138.277ZM90.3387 148.961C88.6009 148.961 86.965 148.961 85.2359 148.961C85.2359 147.219 85.2359 145.543 85.2359 143.788C86.9384 143.788 88.5787 143.788 90.3387 143.788C90.3387 145.454 90.3387 147.135 90.3387 148.961Z" fill="#3BDED7"/>
<path d="M133.786 55.9178C130.527 50.9436 123.988 49.0904 118.535 51.6928C117.489 52.1938 116.722 52.247 115.649 51.7239C110.382 49.1658 104.033 50.7973 100.66 55.4568C97.3435 60.0364 97.6184 66.518 101.772 70.3484C106.649 74.8439 111.872 78.958 117.05 83.3249C122.002 79.1886 126.817 75.2783 131.503 71.2218C136.14 67.214 137.018 60.8477 133.786 55.9178ZM127.623 67.5732C124.152 70.4859 120.663 73.3809 117.076 76.369C113.326 73.2434 109.735 70.2952 106.188 67.285C103.284 64.8156 102.947 60.8566 105.337 58.1212C107.704 55.408 112 55.0622 114.767 57.4252C115.516 58.068 116.101 58.9059 117.502 60.0098C117.945 59.3094 118.269 58.4936 118.845 57.9261C121.709 55.0977 126.2 55.1952 128.763 58.0724C131.29 60.9142 130.824 64.8865 127.623 67.5732Z" fill="#3BDED7"/>
<path d="M148.553 59.8863C148.713 59.9616 148.877 60.037 149.037 60.1124C149.037 66.656 149.037 73.1997 149.037 79.7078C150.899 79.7078 152.579 79.7078 154.179 79.7078C154.179 70.8101 154.179 62.0453 154.179 53.2273C152.277 53.2273 150.508 53.2052 148.739 53.2451C148.332 53.2539 147.813 53.3515 147.542 53.613C144.741 56.3484 141.974 59.1281 139.407 61.6906C140.666 63.0694 141.801 64.3152 142.985 65.6097C144.86 63.6812 146.709 61.7837 148.553 59.8863Z" fill="#3BDED7"/>
<path d="M55.8516 15.9557C57.288 15.969 58.5072 14.7676 58.5205 13.3267C58.5338 11.8859 57.3368 10.6711 55.8915 10.6578C54.4462 10.6445 53.2359 11.8371 53.227 13.2868C53.2137 14.7277 54.4063 15.9424 55.8516 15.9557Z" fill="#3BDED7"/>
<path d="M127.841 122.388C129.57 122.388 131.166 122.388 132.926 122.388C132.926 120.565 132.926 118.89 132.926 117.214C131.143 117.214 129.468 117.214 127.841 117.214C127.841 119.009 127.841 120.69 127.841 122.388Z" fill="#3BDED7"/>
<path d="M138.45 122.308C140.223 122.308 141.899 122.308 143.548 122.308C143.548 120.517 143.548 118.836 143.548 117.178C141.784 117.178 140.148 117.178 138.45 117.178C138.45 118.938 138.45 120.614 138.45 122.308Z" fill="#3BDED7"/>
<path d="M149.13 122.383C150.863 122.383 152.459 122.383 154.206 122.383C154.206 120.557 154.206 118.881 154.206 117.214C152.419 117.214 150.743 117.214 149.13 117.214C149.13 119.018 149.13 120.698 149.13 122.383Z" fill="#3BDED7"/>
</svg>
