<svg width="150" height="150" viewBox="0 0 150 150" fill="none" xmlns="http://www.w3.org/2000/svg">
<path d="M150 11.8894C150 6.0073 147.268 0.0116873 140 0.0116873C139.918 -0.0157078 135.636 0.0116873 135.472 0.0116873C90.9393 0.0116873 52.7319 0.0116873 8.19961 0.0116873C6.3366 0.0116873 4.43053 1.31491 2.98239 2.31288C1.02935 3.66698 0 6.60608 0 9.15383C0 53.6826 0 97.2722 0 141.797C0.172211 142.239 0.363992 142.674 0.516634 143.124C1.87867 147.166 5.52642 149.875 9.77691 149.992C10.0704 150 10.364 150 10.6536 150C53.5577 150 96.4579 150.004 139.362 150C144.928 150 148.947 146.767 149.855 141.547C150.004 140.69 149.992 139.797 149.992 138.921C150 96.3133 150 54.4967 150 11.8894ZM145.01 26.9841C145.01 64.2337 145.01 101.483 145.01 138.733C145.01 143.257 143.256 145.006 138.716 145.006C96.2388 145.006 53.7613 145.006 11.2838 145.006C6.73973 145.006 4.99022 143.261 4.99022 138.733C4.99022 101.483 4.99022 64.2337 4.99022 26.9841C4.99022 26.401 4.99022 25.8179 4.99022 25.1095C51.6556 25.1095 98.2427 25.1095 145.01 25.1095C145.01 25.8179 145.01 26.401 145.01 26.9841ZM145.01 19.9162C98.2701 19.9162 51.7182 19.9162 5.05675 19.9162C5.05675 16.304 4.90411 12.7465 5.11155 9.21253C5.25245 6.83307 7.41292 5.1424 9.83562 5.00934C10.3209 4.98194 10.8102 4.9976 11.2994 4.9976C53.773 4.9976 96.2466 4.9976 138.72 4.9976C143.26 4.9976 145.01 6.74306 145.01 11.275C145.01 14.1045 145.01 16.9301 145.01 19.9162Z" fill="#3BDED7"/>
<path d="M51.9961 107.084C64.1605 104.669 72.3248 94.8027 72.4775 82.2714C72.5362 77.2933 72.4892 72.3152 72.4892 67.3371C72.4892 61.725 72.4736 56.113 72.4971 50.5009C72.5088 47.961 71.7299 45.7811 69.7025 44.1883C67.3072 42.3097 64.6301 41.9301 61.8669 43.2177C58.9315 44.5874 57.5108 47.0452 57.4873 50.2504C57.4481 55.9095 57.4794 61.5724 57.4755 67.2354C57.4716 72.4091 57.5577 77.5829 57.4286 82.7528C57.2798 88.7797 51.636 93.2999 45.7065 92.3058C40.9667 91.5114 37.5225 87.3747 37.5108 82.334C37.4834 71.5482 37.5264 60.7623 37.4873 49.9765C37.4716 45.8007 34.137 42.5211 30.047 42.4976C25.9413 42.4741 22.5597 45.7185 22.544 49.8904C22.5049 61.1145 22.3953 72.3426 22.5792 83.5629C22.818 98.4658 37.3659 109.991 51.9961 107.084ZM27.5186 50.5557C27.5186 48.685 28.4423 47.5461 29.9374 47.507C31.4755 47.4639 32.501 48.6654 32.5049 50.5792C32.5166 61.3141 32.4579 72.053 32.5401 82.788C32.5949 90.1925 38.1213 96.3055 45.4638 97.327C54.0078 98.5167 62.1957 91.7618 62.3992 83.0893C62.591 74.8943 62.4657 66.6953 62.4775 58.4963C62.4814 55.8625 62.4618 53.2247 62.4853 50.5909C62.501 48.6537 63.5108 47.4718 65.0528 47.507C66.5558 47.5422 67.4716 48.6537 67.4794 50.5478C67.4951 56.1599 67.4834 61.772 67.4834 67.3841C67.4755 67.3841 67.4638 67.3841 67.456 67.3841C67.456 72.7027 67.5969 78.0251 67.4247 83.3398C67.0685 94.3448 57.7847 102.884 46.7749 102.505C36.1683 102.141 27.6047 93.4134 27.5382 82.7645C27.4677 72.0295 27.5147 61.2946 27.5186 50.5557Z" fill="#3BDED7"/>
<path d="M92.1565 73.2234C93.0959 74.5305 93.182 75.3759 92.1996 76.7378C87.7691 82.8665 83.499 89.1086 79.135 95.2843C77.6908 97.3272 77.1507 99.5384 77.8043 101.933C78.5871 104.806 80.4579 106.681 83.4325 107.248C86.6732 107.866 89.3385 106.786 91.2485 104.137C94.3014 99.9023 97.2485 95.5935 100.243 91.3159C100.959 90.2945 101.683 89.2809 102.481 88.1498C102.869 88.6742 103.162 89.0539 103.44 89.4452C106.83 94.2785 110.231 99.1039 113.597 103.953C115.049 106.047 116.971 107.354 119.526 107.491C122.568 107.655 124.978 106.391 126.485 103.749C128.055 101.002 127.875 98.2117 126.07 95.6091C121.62 89.1947 117.166 82.7843 112.626 76.4325C111.82 75.3054 111.898 74.6127 112.669 73.5326C117.119 67.2982 121.468 60.9934 125.879 54.7278C127.276 52.7436 127.879 50.595 127.272 48.2273C126.481 45.1473 124.458 43.2257 121.346 42.6426C118.219 42.0556 115.656 43.1983 113.824 45.7696C110.34 50.6576 106.928 55.5927 103.483 60.5082C103.186 60.9347 102.873 61.3496 102.501 61.8623C102.059 61.2517 101.714 60.7899 101.386 60.3164C98.0274 55.5222 94.6693 50.7242 91.3151 45.9261C89.8552 43.8363 87.8708 42.5957 85.3111 42.5174C82.27 42.4235 79.8982 43.7345 78.4423 46.4114C76.9589 49.1431 77.1742 51.8787 78.9432 54.4225C83.3151 60.7156 87.683 67.0086 92.1565 73.2234ZM83.6203 47.9534C84.9354 47.0689 86.274 47.4681 87.4364 49.1235C89.4599 51.9961 91.4677 54.8765 93.4794 57.753C95.6634 60.8682 97.8356 63.9912 100.031 67.1025C101.558 69.2668 103.44 69.2824 104.963 67.1182C109.115 61.2126 113.245 55.2913 117.393 49.3779C117.699 48.9396 118 48.4739 118.399 48.1334C119.319 47.3507 120.36 47.2646 121.366 47.9573C122.415 48.6813 122.751 49.7145 122.301 50.9081C122.098 51.4443 121.718 51.9178 121.386 52.3992C116.638 59.201 111.886 65.995 107.135 72.7929C105.773 74.7419 105.777 75.278 107.147 77.2348C111.894 84.0327 116.65 90.8306 121.397 97.6285C121.675 98.0277 121.973 98.423 122.192 98.8535C122.775 100 122.474 101.268 121.491 101.988C120.501 102.712 119.202 102.642 118.278 101.753C117.93 101.421 117.656 101.006 117.374 100.607C113.288 94.7755 109.209 88.9365 105.119 83.1013C103.358 80.5849 101.656 80.5888 99.8904 83.1052C95.7769 88.9795 91.679 94.8616 87.5381 100.716C87.1076 101.327 86.5127 101.949 85.8513 102.243C84.1448 103.002 82.4149 101.671 82.5675 99.4405C82.7554 99.1079 83.0528 98.4504 83.4638 97.8633C88.2935 90.9441 93.1428 84.0327 97.9804 77.1213C99.2094 75.3641 99.2133 74.6479 97.9922 72.9025C93.2368 66.1085 88.4736 59.3184 83.7143 52.5283C83.6008 52.3679 83.4873 52.2113 83.3777 52.0509C82.2074 50.3524 82.2974 48.8417 83.6203 47.9534Z" fill="#3BDED7"/>
<path d="M27.9452 127.477C43.6164 127.489 59.2877 127.481 74.9589 127.481C89.409 127.481 103.859 127.481 118.313 127.481C119.875 127.481 121.44 127.524 122.998 127.454C127.35 127.25 130.626 123.133 129.883 118.844C129.233 115.079 126.278 112.516 122.419 112.516C90.7828 112.5 59.1468 112.508 27.5108 112.508C27.3151 112.508 27.1194 112.512 26.9237 112.523C22.5558 112.848 19.362 116.938 20.1252 121.231C20.8063 125.074 23.7808 127.473 27.9452 127.477ZM28.7162 117.494C44.1409 117.494 59.5656 117.494 74.9941 117.494C90.3718 117.494 105.75 117.494 121.123 117.494C121.562 117.494 122.004 117.474 122.442 117.502C123.941 117.599 124.998 118.636 124.998 119.991C125.002 121.353 123.941 122.39 122.45 122.476C122.063 122.499 121.667 122.484 121.28 122.484C90.4305 122.484 59.5773 122.484 28.728 122.484C26.2153 122.484 25.0059 121.677 25.002 120.002C24.998 118.323 26.227 117.494 28.7162 117.494Z" fill="#3BDED7"/>
<path d="M137.088 10.0034C132.364 9.98388 127.636 9.98388 122.912 10.0034C121.076 10.0113 120.008 11.0132 120.047 12.5825C120.086 14.0931 121.108 14.9698 122.916 14.9815C125.303 15.0011 127.691 14.9854 130.078 14.9854C132.415 14.9854 134.755 15.0011 137.092 14.9815C138.841 14.9659 139.953 14.0266 139.996 12.5747C140.043 11.0836 138.873 10.0113 137.088 10.0034Z" fill="#3BDED7"/>
<path d="M14.8571 10.0074C14.0783 9.96825 13.2955 9.96042 12.5205 10.0152C11.0411 10.113 9.98823 11.1932 9.99998 12.5356C10.0117 13.8975 11.0646 14.9072 12.5675 14.9855C12.955 15.005 13.3464 14.9894 13.7377 14.9894C14.0783 14.9894 14.4188 15.0011 14.7593 14.9894C16.3796 14.9346 17.4677 13.9679 17.499 12.559C17.5303 11.158 16.4383 10.0857 14.8571 10.0074Z" fill="#3BDED7"/>
<path d="M40.0626 10.0111C39.6282 9.96801 39.1859 9.99541 38.7476 9.99541C36.2231 9.99541 35.045 10.7742 35.0215 12.4727C34.998 14.1829 36.1683 14.9891 38.6771 14.9813C39.1155 14.9813 39.5538 15.0048 39.9922 14.9774C41.4403 14.8874 42.4188 13.952 42.4775 12.6175C42.5362 11.2438 41.5421 10.1559 40.0626 10.0111Z" fill="#3BDED7"/>
<path d="M27.8787 10.0696C26.775 9.94436 25.6321 9.94045 24.5323 10.0892C23.229 10.2653 22.4384 11.4433 22.544 12.7308C22.6458 13.9636 23.5303 14.8442 24.8297 14.9616C25.2642 15.0007 25.7065 14.9694 26.1448 14.9694V14.9733C26.6301 14.9733 27.1194 15.0046 27.6047 14.9655C28.9785 14.8598 29.8865 13.948 29.9491 12.6447C30.0117 11.3415 29.2016 10.2222 27.8787 10.0696Z" fill="#3BDED7"/>
</svg>
