<svg width="170" height="151" viewBox="0 0 170 151" fill="none" xmlns="http://www.w3.org/2000/svg">
<path d="M169.18 104.83C169.18 104.14 169.16 103.42 168.98 102.75C168.55 101.13 167.21 100.25 165.56 100.38C164.06 100.5 162.85 101.63 162.63 103.17C162.55 103.74 162.58 104.34 162.58 104.92C162.58 115.9 162.58 126.89 162.58 137.87C162.58 142.28 161.14 143.72 156.69 143.72C108.92 143.72 61.14 143.72 13.37 143.72C8.93 143.72 7.50999 142.29 7.50999 137.83C7.50999 104.47 7.50999 71.1101 7.50999 37.7501C7.50999 37.0701 7.50999 36.3901 7.50999 35.6301C59.27 35.6301 110.82 35.6301 162.58 35.6301C162.58 39.3001 162.58 42.8001 162.58 46.3001C162.58 52.8401 162.56 59.3901 162.59 65.9301C162.6 67.9401 163.97 69.3601 165.77 69.4201C167.57 69.4701 168.98 68.1001 169.15 66.1001C169.19 65.6901 169.17 65.2801 169.17 64.8701C169.17 47.2801 169.18 29.7001 169.17 12.1101C169.17 4.65014 164.63 0.140137 157.14 0.140137C109.08 0.140137 61.01 0.140137 12.95 0.140137C5.42 0.140137 0.970001 4.58014 0.970001 12.1101C0.970001 54.1801 0.970001 96.2401 0.970001 138.31C0.970001 145.85 5.39 150.25 12.95 150.26C61.01 150.26 109.08 150.2 157.14 150.33C164.03 150.35 169.31 145.45 169.22 138.31C169.08 127.16 169.19 115.99 169.18 104.83ZM7.52 11.9601C7.54 8.30014 9.11 6.75014 12.78 6.75014C60.96 6.74014 109.14 6.74014 157.32 6.75014C160.97 6.75014 162.58 8.35014 162.59 11.9501C162.6 17.5501 162.59 23.1401 162.59 28.9001C110.83 28.9001 59.34 28.9001 7.67 28.9001C7.62 28.3701 7.53 27.8701 7.53 27.3801C7.51 22.2401 7.5 17.1001 7.52 11.9601Z" fill="#3BDED7"/>
<path d="M110.19 110.68C105.79 115.14 105.73 121.66 109.97 125.89C114.19 130.1 120.71 130.01 125.19 125.64C127.41 123.48 129.57 121.27 131.76 119.08C137.58 113.26 143.44 107.47 149.21 101.61C153.52 97.2199 153.79 90.8699 149.66 86.6599C141.41 78.2399 133.04 69.9299 124.66 61.6299C122.34 59.3299 119.39 58.3899 116.14 58.8599C111.84 59.4699 108.83 61.8799 107.44 65.9999C106.07 70.0599 106.98 73.7599 109.97 76.8199C114.33 81.2899 118.78 85.6799 123.21 90.0799C124.45 91.3099 125.76 92.4599 127.4 93.9899C126.58 94.5699 126 94.8799 125.55 95.3199C120.41 100.42 115.27 105.52 110.19 110.68ZM132.96 90.5799C127.06 84.6699 121.14 78.7799 115.27 72.8399C114.56 72.1199 113.89 71.2099 113.59 70.2599C113.06 68.6199 113.85 66.9199 115.27 65.9999C116.76 65.0299 118.55 65.1099 119.98 66.2999C120.83 67.0099 121.59 67.8199 122.37 68.6099C129.52 75.7499 136.66 82.8999 143.81 90.0399C146.72 92.9599 146.73 94.7899 143.79 97.7299C136.15 105.38 128.51 113.01 120.88 120.66C119.62 121.93 118.26 122.8 116.37 122.25C114.55 121.72 113.45 120.24 113.13 118.13C113.8 117.1 114.33 115.92 115.17 115.05C121.07 109.06 127.04 103.13 132.98 97.1799C135.59 94.5499 135.59 93.2099 132.96 90.5799Z" fill="#3BDED7"/>
<path d="M59.95 77.0403C62.91 74.0603 63.95 70.4903 62.81 66.4403C60.64 58.7003 51.18 56.1703 45.29 61.8003C40.52 66.3603 35.93 71.1003 31.27 75.7703C27.72 79.3203 24.12 82.8203 20.64 86.4403C16.63 90.6103 16.34 96.8303 20.25 100.84C28.64 109.45 37.16 117.95 45.75 126.36C49.14 129.68 54.62 129.85 58.55 127.2C64.09 123.46 64.88 115.77 60.1 110.9C54.54 105.24 48.88 99.6703 42.93 93.7303C43.59 93.2103 44.13 92.8503 44.59 92.4003C49.72 87.2903 54.85 82.1803 59.95 77.0403ZM37.04 97.0603C42.99 103.01 48.97 108.92 54.84 114.95C55.74 115.88 56.55 117.32 56.6 118.56C56.73 121.62 53.12 123.43 50.53 121.76C49.95 121.39 49.45 120.87 48.96 120.37C41.32 112.73 33.68 105.09 26.04 97.4403C23.44 94.8403 23.45 92.8903 26.08 90.2603C33.8 82.5303 41.51 74.7903 49.27 67.1103C50.17 66.2203 51.41 65.6903 52.84 64.7703C54.08 65.7603 55.32 66.4303 56.11 67.4403C57.08 68.6903 56.87 70.2203 55.98 71.5403C55.6 72.1203 55.08 72.6103 54.58 73.1003C48.72 78.9703 42.85 84.8303 36.99 90.7003C34.58 93.1303 34.59 94.6103 37.04 97.0603Z" fill="#3BDED7"/>
<path d="M80.65 68.4799C77.11 83.8199 73.61 99.1599 70.16 114.52C68.94 119.94 71.79 125.12 76.79 126.96C83.16 129.3 89.41 125.52 91.04 118.34C93.83 106.06 96.64 93.7799 99.42 81.4999C100.23 77.9199 101 74.3399 101.59 71.6699C101.59 65.3099 97.5 60.7999 92.03 60.1799C86.86 59.5799 81.88 63.1199 80.65 68.4799ZM94.98 71.2699C94.47 73.5399 93.84 76.3299 93.21 79.1099C90.31 91.8299 87.42 104.56 84.5 117.28C83.87 120.04 81.95 121.45 79.68 120.94C77.24 120.39 76.06 118.34 76.69 115.54C80.1 100.42 83.53 85.3099 86.98 70.1999C87.53 67.7899 89.33 66.4899 91.51 66.7499C93.5 66.9999 94.97 68.6899 94.98 71.2699Z" fill="#3BDED7"/>
<path d="M162.6 85.2101C162.51 86.9801 163.89 88.5001 165.67 88.6001C167.54 88.7001 169.11 87.2801 169.16 85.4401C169.2 83.6801 167.77 82.1901 165.99 82.1401C164.19 82.0801 162.69 83.4401 162.6 85.2101Z" fill="#3BDED7"/>
<path d="M76.53 20.9401C77.18 21.1401 77.91 21.1501 78.6 21.1501C87.24 21.1601 95.88 21.1601 104.53 21.1601C113.11 21.1601 121.7 21.1601 130.28 21.1601C133.31 21.1601 134.9 20.0101 134.88 17.8401C134.86 15.6801 133.28 14.5601 130.23 14.5601C113.06 14.5601 95.9 14.5601 78.73 14.5701C77.98 14.5701 77.2 14.5901 76.49 14.8001C75.05 15.2301 74.28 16.2901 74.26 17.8001C74.23 19.3801 75.02 20.4801 76.53 20.9401Z" fill="#3BDED7"/>
<path d="M59.02 21.1603C62.06 21.1603 63.66 20.0503 63.7 17.9103C63.74 15.7203 62.08 14.5503 58.95 14.5503C55.87 14.5503 54.33 15.6203 54.3 17.8003C54.26 20.0303 55.84 21.1603 59.02 21.1603Z" fill="#3BDED7"/>
<path d="M26.57 21.1601C26.98 21.1601 27.39 21.1801 27.79 21.1601C29.84 21.0601 31.18 19.8101 31.22 17.9501C31.26 16.0101 29.91 14.6801 27.78 14.5701C27.37 14.5501 26.96 14.5601 26.56 14.5601C23.5 14.5601 21.94 15.6401 21.88 17.7801C21.83 19.9901 23.44 21.1601 26.57 21.1601Z" fill="#3BDED7"/>
<path d="M41.2 21.1299C41.72 21.1799 42.25 21.1399 42.77 21.1399V21.1499C43.18 21.1499 43.59 21.1699 43.99 21.1499C46.01 21.0599 47.4 19.7699 47.45 17.9499C47.51 16.0599 46.1 14.6599 44 14.5599C43.07 14.5199 42.13 14.4999 41.21 14.5799C39.31 14.7499 38.08 16.1199 38.12 17.9299C38.16 19.6699 39.38 20.9499 41.2 21.1299Z" fill="#3BDED7"/>
<path d="M144.88 21.1501C146.61 21.2001 148.13 19.7801 148.22 18.0301C148.31 16.2101 146.86 14.6301 145.04 14.5701C143.33 14.5201 141.78 15.9501 141.68 17.6901C141.57 19.4701 143.08 21.1001 144.88 21.1501Z" fill="#3BDED7"/>
</svg>
