<svg width="156" height="156" viewBox="0 0 156 156" fill="none" xmlns="http://www.w3.org/2000/svg">
<path d="M82.0117 153.618L106.687 108.5C107.108 107.733 107.736 107.099 108.503 106.684L153.622 82.0094C156.793 80.2745 156.793 75.7212 153.622 73.9863L108.503 49.3117C107.736 48.891 107.102 48.2627 106.687 47.4961L82.0117 2.37755C80.2767 -0.792508 75.7233 -0.792508 73.9883 2.37755L49.3131 47.4961C48.8923 48.2627 48.264 48.8967 47.4974 49.3117L2.37761 73.9863C-0.792537 75.7212 -0.792537 80.2745 2.37761 82.0094L47.4974 106.684C48.264 107.105 48.8981 107.733 49.3131 108.5L73.9883 153.618C75.7233 156.794 80.2767 156.794 82.0117 153.618Z" fill="#000801"/>
</svg>
